<?xml version="1.0" encoding="utf-8"?><svg xmlns="http://www.w3.org/2000/svg" xmlns:xlink="http://www.w3.org/1999/xlink"><symbol viewBox="0 0 196 246" id="gerb1" xmlns="http://www.w3.org/2000/svg"><path d="M98.525 243.015h-2.719c.944.431 1.693.766 2.193.985.5-.219 1.249-.553 2.193-.985h-1.667zM4.051 2s-.799 68.831-.799 116.94c0 0-.924 10.665.799 24.875V2z" fill="none"/><path fill="#c2882b" d="M98.525 122.508V2H4.051v120.508z"/><path d="M192.935 122.508a72.924 72.924 0 0 0-.187-3.568c0-48.109-.799-116.94-.799-116.94H98.525v120.508h94.41zm-94.41 0H4.051v21.308c2.039 16.805 7.785 38.571 23.193 53.58 25.527 24.87 58.621 41.069 68.563 45.619h2.719V122.508z" fill="#faad1c"/><path d="M98.525 243.015h1.667c9.943-4.55 43.037-20.749 68.564-45.619 23.912-23.294 24.574-62.877 24.179-74.888h-94.41v120.507z" fill="#c2882b"/><path d="M192.748 118.94c0-48.109-.799-116.94-.799-116.94H4.051s-.799 68.831-.799 116.94c0 0-4.444 50.754 23.992 78.456C55.193 224.626 92.229 241.47 97.999 244c5.772-2.53 42.808-19.374 70.756-46.604 28.437-27.702 23.993-78.456 23.993-78.456z" fill="none" stroke="#fff" stroke-width="2.126" stroke-miterlimit="10"/></symbol><symbol viewBox="0 0 196 246" id="gerb2" xmlns="http://www.w3.org/2000/svg"><path d="M97.132 1.582H48.978s.716 15.671-10.738 31.34C26.788 48.593 2.45 48.593 2.45 48.593s-.459 41.588-.274 73.494h94.956V1.582z" fill="#c2882b"/><path d="M156.023 32.922c-11.455-15.669-10.737-31.34-10.737-31.34H97.132v120.505h94.955c.185-31.906-.273-73.494-.273-73.494s-24.339 0-35.791-15.671zM2.176 122.086c.046 7.956.131 15.319.274 21.275 1.427 59.534 22.86 100.511 94.682 100.219V122.086H2.176z" fill="#faad1c"/><path d="M97.132 243.58c71.82.291 93.253-40.686 94.682-100.219.143-5.955.227-13.319.273-21.275H97.132V243.58z" fill="#c2882b"/><path d="M191.814 48.593s-24.339 0-35.791-15.671c-11.455-15.669-10.737-31.34-10.737-31.34H48.978s.716 15.671-10.738 31.34C26.788 48.593 2.45 48.593 2.45 48.593s-.717 64.93 0 94.768c1.427 59.534 22.86 100.511 94.682 100.219 71.82.291 93.253-40.686 94.682-100.219.715-29.838 0-94.768 0-94.768z" fill="none" stroke="#fff" stroke-width="2.126" stroke-miterlimit="10"/></symbol><symbol viewBox="0 0 196 246" id="gerb3" xmlns="http://www.w3.org/2000/svg"><path d="M97.964 243.514h-.053l.054.068.053-.068h-.054zm95-213.831l-.438-.495v1.428c.279-.604.438-.933.438-.933zm-190 0s.159.328.436.928V29.19l-.436.493z" fill="none"/><path d="M97.964 1.582H27.785L3.4 29.189v1.421c2.515 5.459 15.16 34.402 14.458 63.087-.245 10.001-1.122 19.52-2.158 28.389h82.263V1.582z" fill="#c2882b"/><path d="M180.227 122.087c-1.035-8.869-1.912-18.387-2.158-28.389-.702-28.678 11.938-57.615 14.457-63.083v-1.428L168.142 1.582H97.964v120.505h82.263zm-82.263 0H15.701c-2.79 23.898-6.756 42.924-2.809 52.791 5.422 13.543 18.628 28.901 41.523 39.557 23.418 10.909 35.37 18.194 43.497 29.08h.053V122.087z" fill="#faad1c"/><path d="M97.964 243.514h.055c8.122-10.886 20.077-18.171 43.498-29.08 22.893-10.655 36.107-26.014 41.517-39.557 3.952-9.866-.014-28.893-2.806-52.791H97.964v121.428z" fill="#c2882b"/><path d="M192.964 29.683L168.142 1.582H27.785L2.964 29.683s15.673 32.175 14.894 64.016c-.904 36.949-10.377 67.652-4.967 81.179 5.422 13.543 18.628 28.901 41.523 39.557 23.468 10.932 35.423 18.223 43.551 29.148 8.123-10.925 20.08-18.216 43.551-29.148 22.893-10.655 36.107-26.014 41.517-39.557 5.418-13.527-4.059-44.231-4.964-81.179-.78-31.842 14.895-64.016 14.895-64.016z" fill="none" stroke="#fff" stroke-width="2.126" stroke-miterlimit="10"/></symbol><symbol viewBox="0 0 196 246" id="gerb4" xmlns="http://www.w3.org/2000/svg"><path d="M192.964 29.683L168.142 1.582H27.785L2.964 29.683s15.673 32.175 14.894 64.016c-.904 36.949-10.377 67.652-4.967 81.179 5.422 13.543 18.628 28.901 41.523 39.557 23.468 10.932 35.423 18.223 43.551 29.148 8.123-10.925 20.08-18.216 43.551-29.148 22.893-10.655 36.107-26.014 41.517-39.557 5.418-13.527-4.059-44.231-4.964-81.179-.78-31.842 14.895-64.016 14.895-64.016z" fill="none" stroke="#fff" stroke-width="2.126" stroke-miterlimit="10"/><path d="M192.55 1.604h-.305v192.527c.155-1.367.268-2.774.305-4.252.491-19.106 0-188.275 0-188.275zM97.709 241.505l.064.099v-.097l.002-.001-.008-.001h-.058zM3.289 1.689h-.302s-.493 169.169 0 188.275c.037 1.466.149 2.86.301 4.217V1.689z" fill="none"/><path fill="#c2882b" d="M97.767 121.064V1.604h-.004v.085H3.289v119.375z"/><path fill="#faad1c" d="M97.767 1.604h94.478v119.459H97.767zm0 119.46H3.289v73.117c2.911 26.026 26.425 32.277 56.891 33.022 26.245.643 34.91 9.979 37.529 14.302h.058V121.064z"/><path d="M97.767 121.064v120.441h.008c2.56-4.286 11.179-13.742 37.581-14.387 30.456-.743 53.96-6.987 56.889-32.987v-73.068H97.767z" fill="#c2882b"/><path d="M192.55 1.604H97.763v.085H2.987s-.493 169.169 0 188.275c.761 29.594 25.138 36.455 57.192 37.239 26.435.647 35.042 10.122 37.593 14.401v-.097c2.56-4.285 11.176-13.744 37.583-14.389 32.057-.781 56.431-7.642 57.194-37.239.492-19.106.001-188.275.001-188.275z" fill="none" stroke="#fff" stroke-width="2.082" stroke-miterlimit="10"/></symbol></svg>