<?xml version="1.0" encoding="utf-8"?><svg xmlns="http://www.w3.org/2000/svg" xmlns:xlink="http://www.w3.org/1999/xlink"><symbol viewBox="0 0 44.33 25.94" id="crown1" xmlns="http://www.w3.org/2000/svg"><path d="M43.625 10.779c-.078-2.026.235-3.321.705-3.921-.548-.193-2.741.842-3.367 2.868-.627 2.025 1.253 3.16.313 5.023-.313-6.077-4.855-4.213-4.935-1.62-.058 1.95 1.88 2.349 1.623 3.057.917-.022-.213-2.085.42-2.68.632-.595 1.874.433 2.187 1.81-.549 0-1.02 1.458-.656 2.229-.263.502-.574.802-.853.982-3.16-1.255-8.557-2.809-14.588-3.1a3.22 3.22 0 0 1-.682-1.042c.87-.123 1.35-.987.482-1.892.857.067 1.796-.663.387-1.634-.236-1.053.548-2.628 1.136-2.489.587.139.733.557.346 1.32-.386.763-.466 1.824.279 2.185-.274-.692.352-1.016 1.371-1.583 1.018-.567 1.951-4.863-1.031-5.678-1.163-.317-2.024 1.141-2.024 1.141.313-1.945-2.193-4.468-2.232-5.758-.039 1.291-2.545 3.814-2.231 5.758 0 0-.862-1.458-2.024-1.141-2.982.815-2.049 5.111-1.03 5.678 1.017.567 1.644.891 1.37 1.583.745-.361.666-1.421.28-2.185-.387-.764-.241-1.181.347-1.32.587-.139 1.37 1.436 1.136 2.489-1.411.971-.471 1.701.387 1.634-.867.904-.387 1.769.482 1.892a3.236 3.236 0 0 1-.682 1.042c-6.287.303-11.886 1.979-14.98 3.258-.335-.139-.787-.449-1.148-1.141.362-.77-.108-2.229-.656-2.229.313-1.377 1.555-2.405 2.187-1.81.632.595-.497 2.658.419 2.68-.256-.708 1.682-1.107 1.624-3.057-.079-2.593-4.621-4.457-4.935 1.62-.94-1.863.941-2.998.314-5.023C2.74 7.7.548 6.665 0 6.858c.468.6.782 1.895.704 3.921-.079 2.025.788 3.438 1.764 4.433-.199.915-.091 2.166 1.031 2.715.063.73-.002 1.375-.131 1.842a1.77 1.77 0 0 0-.263.207c-.905.927.498 1.461.498 1.461s.408 1.944.423 2.953c-.509.288-1.411.976.247 1.552 1.658-1.049 7.396-3.826 18.236-3.826 9.915 0 16.578 2.777 18.236 3.826 1.658-.576.755-1.264.247-1.552.015-1.009.422-2.953.422-2.953s1.405-.535.498-1.461c-.148-.151-.506-.378-1.042-.648a5.932 5.932 0 0 1-.039-1.401c1.121-.549 1.229-1.8 1.03-2.715.977-.995 1.843-2.408 1.764-4.433zM6.163 22.574c-.458 0-.829-.384-.829-.858s.371-.858.829-.858c.459 0 .831.384.831.858-.001.474-.372.858-.831.858zm16.345-2.235c-.821 0-1.488-.689-1.488-1.539s.666-1.539 1.488-1.539 1.489.689 1.489 1.539c.001.85-.667 1.539-1.489 1.539zm16.345 2.235c-.458 0-.83-.384-.83-.858s.372-.858.83-.858c.458 0 .831.384.831.858a.845.845 0 0 1-.831.858z"/></symbol><symbol viewBox="0 0 39.03 30.18" id="crown2" xmlns="http://www.w3.org/2000/svg"><path d="M39.028 14.829v1.172c-.064.966-.174 1.933-.175 2.899-.001.661-.182 1.074-.807 1.383-1.026.509-2.014 1.101-2.989 1.706-.563.349-1.116.576-1.796.643-5.647.565-11.283.637-16.899-.31-2.551-.429-5.031-1.099-7.378-2.219-.566-.271-.835-.616-.711-1.269.076-.398.031-.819.036-1.23.021-1.816-.089-3.646.087-5.447.373-3.81 2.152-6.757 5.677-8.508 1.827-.906 3.771-1.391 5.78-1.641.45-.056.689-.217.924-.645.237-.431.728-.742 1.15-1.045.236-.169.557-.216.84-.318h.65c.284.1.596.154.844.31.393.245.878.484 1.079.857.274.507.636.612 1.125.709 1.356.268 2.74.477 4.045.912 4.506 1.502 7.353 4.513 8.128 9.3.148.911.261 1.828.39 2.741z"/><path d="M.002 26.277c1.508-2.958 4.615-3.739 7.185-5.245.191-.112.564-.062.785.048 4.173 2.081 8.659 2.825 13.246 3.167 3.571.267 7.138.194 10.773-.016-.192.133-.381.272-.579.397-4.075 2.569-8.511 4.155-13.27 4.849-1.412.205-2.832.359-4.247.544-.212.028-.417.104-.625.158h-1.561c-.231-.053-.46-.142-.692-.152-3.057-.125-5.966-.909-8.819-1.954-.901-.33-1.877-.568-2.197-1.667l.001-.129z" fill-rule="evenodd" clip-rule="evenodd"/></symbol><symbol viewBox="0 0 45.13 30.59" id="crown3" xmlns="http://www.w3.org/2000/svg"><path d="M2.4 16.485V7.776l20.168 6.174 22.564-6.908L22.568.002 0 7.042l1.61.494v8.949c-.57.172-.985.693-.985 1.316a1.38 1.38 0 1 0 2.763 0 1.38 1.38 0 0 0-.988-1.316z"/><path d="M22.565 15.588l-11.447-3.504v16.003s4.935 2.5 11.447 2.5c6.515 0 11.448-2.5 11.448-2.5V12.084l-11.448 3.504z"/></symbol><symbol viewBox="0 0 45.58 29.28" id="crown4" xmlns="http://www.w3.org/2000/svg"><path d="M44.17 14.372c-1.923-.104-6.173 1.488-10.591 2.424a24.952 24.952 0 0 1-.226-.957C32.063 10.02 31.244 0 27.144 0c-1.253 0-2.926 1.421-4.355 1.43C21.361 1.422 19.688 0 18.435 0c-4.099 0-4.918 10.019-6.208 15.839.732.524 1.464.962 2.196 1.331.969.498 1.924.88 2.863 1.169.755.232 1.499.399 2.236.529.059-.203.142-.397.237-.583.027-.057.063-.111.096-.167a3.393 3.393 0 0 1 .374-.526c.099-.114.205-.219.316-.318.044-.038.085-.08.13-.117.163-.13.336-.25.522-.349a3.398 3.398 0 0 1 1.604-.4 3.33 3.33 0 0 1 2.124.749c.043.035.083.075.125.113a3.252 3.252 0 0 1 .451.481c.09.116.17.239.245.367.031.055.065.108.095.164.096.188.178.38.236.585a18.94 18.94 0 0 0 2.229-.528 17.504 17.504 0 0 0 2.863-1.169 16.664 16.664 0 0 0 2.157-1.297c.07.327.143.635.218.931.068.27.139.528.213.769a16.447 16.447 0 0 1-2.588 1.613c-.968.497-1.922.88-2.863 1.168-.765.241-1.52.416-2.266.547a3.416 3.416 0 0 1-3.239 2.339 3.417 3.417 0 0 1-3.245-2.349 18.716 18.716 0 0 1-2.271-.537 17.569 17.569 0 0 1-2.863-1.168 16.149 16.149 0 0 1-2.6-1.627c-.034.134-.064.268-.107.398-.066.201-.106.409-.196.603l-.241.565c-.035.246.075.524.208.771.141.25.306.488.493.712.361.456.785.869 1.225 1.255a15.676 15.676 0 0 0 2.908 1.977c2.05 1.13 4.367 1.822 6.677 1.871.561-.043 1.158-.051 1.727-.164.579-.07 1.144-.227 1.71-.366.557-.176 1.116-.352 1.654-.585.275-.102.539-.229.802-.358.264-.126.53-.251.782-.401.521-.27 1.021-.578 1.512-.902.486-.331.955-.687 1.399-1.07.436-.393.866-.798 1.224-1.258.351-.451.734-.94.705-1.482l-.237-.554c-.092-.19-.126-.391-.193-.585-.056-.195-.121-.394-.162-.594l-.137-.6.012.033v-.001l.183.551c.059.197.145.378.214.573.079.188.131.393.232.565l.273.534.01.017.001.006.021.13c.002.028.01.028.007.08l-.008.055-.03.223c-.021.147-.102.301-.155.453-.14.282-.287.552-.472.795-.351.502-.777.935-1.21 1.361-.44.416-.907.802-1.392 1.166a17.22 17.22 0 0 1-1.519 1c-.259.158-.532.291-.805.425a9.236 9.236 0 0 1-.826.384c-.555.25-1.132.442-1.71.632-.589.153-1.176.326-1.78.409-.604.124-1.204.145-1.832.197a14.273 14.273 0 0 1-3.611-.604 16.553 16.553 0 0 1-3.343-1.44 15.727 15.727 0 0 1-2.909-2.169 9.929 9.929 0 0 1-1.214-1.358 4.847 4.847 0 0 1-.469-.794c-.122-.282-.242-.595-.166-.944l.002-.01.008-.018.283-.549c.101-.181.155-.385.235-.577.071-.196.155-.388.216-.59l.196-.598a.08.08 0 0 1-.004.018l-.001.005v-.001l.008-.025h-.002c-5.164-1.094-9.011-2.501-10.688-2.417-.327-.015-.603.005-.805.08-1.233.457-.005 2.716.728 3.837 9.726 14.865 33.445 14.594 42.992 0 1.963-2.99 1.604-3.904-.075-3.854z"/><path d="M22.802 22.595a2.769 2.769 0 0 0 2.767-2.77 2.768 2.768 0 1 0-5.537 0 2.77 2.77 0 0 0 2.77 2.77zm0-4.628a1.859 1.859 0 1 1-.003 3.717 1.859 1.859 0 0 1 .003-3.717z"/></symbol><symbol viewBox="0 0 37.45 29.03" id="crown5" xmlns="http://www.w3.org/2000/svg"><path d="M10.84 20.084c.97.167 1.895.293 2.791.393a47.982 47.982 0 0 0 5.095.279 47.98 47.98 0 0 0 5.098-.279c.89-.1 1.815-.226 2.791-.393a43.394 43.394 0 0 0 2.269-.44c.554-5.562 1.503-14.919 1.783-17.708-2.018 1.425-11.492 1.445-11.941 1.445-.45 0-9.908-.02-11.937-1.441.978 9.714 1.105 10.991 1.776 17.703.789.174 1.541.322 2.275.441z"/><path d="M18.726 2.729a76.99 76.99 0 0 0 1.684-.017c.279-.006.559-.01.827-.02.146-.004.284-.009.426-.015.245-.009.491-.016.726-.026l.467-.025c.207-.011.417-.02.615-.032.174-.01.338-.023.508-.035.167-.012.339-.021.5-.033l.547-.048c.128-.012.262-.021.387-.034.191-.019.368-.037.547-.057l.314-.032c.189-.022.365-.046.542-.067l.239-.031c.191-.027.367-.054.543-.081.052-.009.11-.016.162-.024a22.762 22.762 0 0 0 1.165-.221c.161-.038.31-.075.444-.112.005-.002.011-.002.017-.003.139-.039.266-.078.377-.116.362-.123.583-.245.636-.359C30.126.824 25.81.003 18.724.003 11.75.003 7.469.798 7.073 1.364c-.004.008-.019.017-.023.026.273.517 4.588 1.339 11.676 1.339zm18.709 19.767c-.068-.28-.301-.514-.679-.702-.376-.188-.896-.332-1.538-.442a21.14 21.14 0 0 0-2.272-.237 64.53 64.53 0 0 0-2.888-.093c-.42-.005-.865-.006-1.313-.007l-.204 1.999h-.018c-.038.198-.267.384-.664.564h-.006l-.628.112c-1.045.172-2.045.31-3.004.416-.963.105-1.896.179-2.802.229-.907.049-1.803.068-2.692.068-.894 0-1.789-.025-2.697-.068a50.285 50.285 0 0 1-5.805-.652 25.278 25.278 0 0 1-.641-.119c-.392-.167-.621-.354-.659-.551h-.018c-.071-.716-.136-1.377-.2-1.999-.448 0-.893.002-1.315.007a64.823 64.823 0 0 0-2.889.092c-.866.052-1.629.127-2.271.238-.642.11-1.162.254-1.539.442-.376.188-.61.422-.678.702a.713.713 0 0 0-.01.261c-.018.273.082.568.308.888.261.369.68.762 1.243 1.165.564.402 1.274.814 2.113 1.214.839.401 1.805.792 2.885 1.151 1.08.359 2.273.688 3.557.966a40.06 40.06 0 0 0 4.103.652c1.444.154 2.957.236 4.511.236 1.554 0 3.065-.082 4.509-.236a40.336 40.336 0 0 0 4.103-.652 33.886 33.886 0 0 0 3.556-.963 25.08 25.08 0 0 0 2.887-1.154c.838-.4 1.548-.812 2.112-1.214.564-.402.983-.796 1.245-1.165.225-.32.324-.615.307-.887a.785.785 0 0 0-.009-.261z"/></symbol><symbol viewBox="0 0 146.62 81.12" id="wreath1" xmlns="http://www.w3.org/2000/svg"><path d="M141.764 22.787a21.768 21.768 0 0 0-2.114 1.72c-.673.617-1.277 1.282-1.901 1.971a21.876 21.876 0 0 0-1.697 2.19c-.524.766-1.046 1.555-1.493 2.385-.229.414-.435.839-.647 1.267-.099.195-.195.393-.289.591.107-.318.217-.641.32-.956.334-1.125.659-2.216.975-3.272l.798-3.083c.202-.82.37-1.617.539-2.381a8.919 8.919 0 0 0 3.313-1.263 10.546 10.546 0 0 0 2.722-2.547c.759-1.031 1.332-2.23 1.731-3.524.378-1.296.512-2.697.431-4.119a12.17 12.17 0 0 0-3.014 1.88c-.454.383-.88.798-1.278 1.241-.411.442-.798.91-1.152 1.405-.712.988-1.28 2.078-1.778 3.235-.198.477-.365.972-.512 1.476.054-.287.105-.571.155-.845.146-.815.304-1.574.41-2.281l.291-1.944c.083-.587.174-1.11.224-1.567l.119-1.036a9.285 9.285 0 0 0 1.727-2.483c.501-1.109.828-2.33.929-3.583.068-1.256-.049-2.543-.409-3.78a11.071 11.071 0 0 0-1.792-3.481 11.794 11.794 0 0 0-1.908 3.364c-.449 1.171-.717 2.375-.765 3.576-.078 1.2.021 2.395.338 3.547.245.958.611 1.882 1.122 2.75l-.126 1.024c-.055.455-.15.972-.239 1.553l-.307 1.927c-.113.701-.277 1.452-.429 2.258l-.151.785c.043-.503.059-1.001.049-1.492-.008-1.236-.257-2.444-.64-3.558a11.175 11.175 0 0 0-.694-1.602c-.283-.51-.603-.993-.957-1.444a10.136 10.136 0 0 0-2.517-2.296c-.406 1.204-.544 2.421-.517 3.613.006 1.188.245 2.361.631 3.474a11.04 11.04 0 0 0 1.647 3.118c.705.934 1.523 1.759 2.505 2.431-.175.757-.349 1.545-.557 2.357l-.82 3.049c-.323 1.042-.655 2.121-.997 3.229-.1.299-.208.603-.314.905.044-.198.088-.397.125-.595.085-.463.133-.933.177-1.397.074-.93.108-1.842.036-2.746a18.3 18.3 0 0 0-.421-2.643c-.189-.851-.501-1.687-.843-2.476a15.27 15.27 0 0 0-1.221-2.246 14.77 14.77 0 0 0-3.547-3.654 16.69 16.69 0 0 0-.715 10.27c.195.836.46 1.665.792 2.478.332.813.687 1.596 1.131 2.363.438.766.94 1.507 1.503 2.21a16.892 16.892 0 0 0 1.74 1.882c-.323.823-.647 1.653-.99 2.494a82.982 82.982 0 0 1-2.333 5.055c.056-.191.109-.382.158-.573.147-.602.254-1.204.315-1.8.041-.606.038-1.205-.006-1.793a11.274 11.274 0 0 0-.264-1.719 9.633 9.633 0 0 0-.56-1.631 9.988 9.988 0 0 0-1.872-2.835 9.82 9.82 0 0 0-.851 1.625l-.021.057-.004.008c-.114.278-.213.56-.299.844-.085.285-.179.562-.246.848a9.739 9.739 0 0 0-.272 1.729c-.021.291-.027.584-.024.877-.006.287.001.576.019.866.07 1.153.354 2.322.774 3.419a10.7 10.7 0 0 0 1.659 2.905 75.998 75.998 0 0 1-3.736 6.093c-.343.541-.739 1.048-1.116 1.566.175-.339.342-.679.494-1.022.69-1.731 1.131-3.483 1.182-5.248a13.752 13.752 0 0 0-3.159-9.476c-.162.206-.315.417-.462.629-1.99 2.739-2.945 5.804-3.147 9-.024.42-.015.86-.02 1.277-.001.42.015.846.047 1.273.062.853.198 1.728.38 2.588a18.018 18.018 0 0 0 1.7 4.795l-.21.258-.675.748c-.448.498-.896.993-1.342 1.486-.458.479-.936.938-1.399 1.405-.463.484-.95.938-1.441 1.381.694-1 1.206-2.087 1.522-3.188.173-.546.257-1.139.314-1.708.052-.572.057-1.141.015-1.699-.073-1.106-.393-2.229-.881-3.263-.919.787-1.731 1.611-2.328 2.584-.29.495-.582.965-.813 1.481a10.078 10.078 0 0 0-.573 1.604 11.754 11.754 0 0 0-.443 4.298 10.842 10.842 0 0 0 .387 2.291c-.031.024-.062.047-.091.072-.496.389-.979.785-1.47 1.16l-1.504 1.052c-.497.346-.979.701-1.49.998l-1.492.914c-.248.147-.484.308-.735.439a9.102 9.102 0 0 0-.137.073c.11-.091.222-.182.33-.275a19.086 19.086 0 0 0 1.828-2.017l.202-.263c.063-.091.123-.186.184-.281a17.153 17.153 0 0 0 .97-1.716c.185-.391.364-.767.503-1.177.137-.409.258-.82.358-1.23.2-.825.334-1.633.368-2.464a13.196 13.196 0 0 0-.777-4.915c-2.904 1.726-4.894 4.072-6.323 6.977-.689 1.488-1.281 3.012-1.651 4.731l-.131.645a18.152 18.152 0 0 0-.307 1.934c-.08.749-.115 1.517-.102 2.293-.581.26-1.15.506-1.721.699l-1.314.491-.632.236-.629.188-2.333.699-.152.036a9.735 9.735 0 0 0 1.019-.677c.481-.36.924-.747 1.327-1.157 1.588-1.725 2.471-3.84 2.468-6.145-1.128.278-2.191.62-3.132 1.194-.466.301-.933.573-1.366.914a9.874 9.874 0 0 0-1.226 1.132c-.189.217-.38.414-.564.624-.184.21-.36.43-.53.659-.339.457-.649.947-.927 1.466-.14.261-.27.527-.392.798-.122.274-.239.533-.343.81-.154.401-.286.816-.394 1.242-.329.051-.629.095-.892.14-.759.117-1.241.203-1.407.214-.858.071-1.871.129-2.847.226a4.19 4.19 0 0 1-.277.024c.255-.122.497-.267.729-.416a6.195 6.195 0 0 0 1.475-1.338 5.403 5.403 0 0 0 .913-1.723c-.362-.002-.693-.031-1.027.001a5.021 5.021 0 0 0-.972.171c-.641.169-1.198.493-1.853.825-1.052.597-1.91 1.479-2.434 2.542a2.248 2.248 0 0 0-3.843-.176 3.283 3.283 0 0 0-3.032-2.03c-1.369 0-2.541.84-3.033 2.03a2.246 2.246 0 0 0-3.842.176 6.002 6.002 0 0 0-2.435-2.542c-.655-.333-1.212-.656-1.853-.825a4.998 4.998 0 0 0-.971-.171c-.335-.032-.665-.004-1.028-.001.212.654.51 1.209.914 1.723.402.51.9.961 1.475 1.338.232.149.474.294.729.416a4.353 4.353 0 0 1-.308-.027c-.966-.095-1.968-.152-2.817-.224-.166-.011-.647-.098-1.407-.214-.262-.045-.563-.089-.892-.14-.108-.426-.24-.841-.394-1.242-.104-.277-.222-.536-.343-.81a12.547 12.547 0 0 0-.392-.798 11.624 11.624 0 0 0-1.457-2.125c-.183-.21-.375-.407-.564-.624a9.888 9.888 0 0 0-1.227-1.132c-.433-.34-.899-.613-1.364-.914-.943-.574-2.006-.916-3.134-1.194-.004 2.305.879 4.42 2.468 6.145a11.546 11.546 0 0 0 2.347 1.834l-.153-.036-2.333-.699-.63-.188-.632-.236-1.314-.491a19.731 19.731 0 0 1-1.721-.699 18.878 18.878 0 0 0-.408-4.227l-.132-.645c-.37-1.719-.961-3.243-1.651-4.731-1.428-2.905-3.418-5.251-6.323-6.977a13.155 13.155 0 0 0-.776 4.915c.034.831.168 1.638.367 2.464.101.41.22.821.358 1.23.139.41.318.786.504 1.177a17.349 17.349 0 0 0 .969 1.716c.061.095.121.189.185.281l.201.263a19.207 19.207 0 0 0 1.829 2.017c.108.093.219.184.33.275a9.102 9.102 0 0 0-.137-.073c-.252-.131-.488-.292-.736-.439l-1.491-.914c-.513-.296-.995-.651-1.491-.998l-1.503-1.052c-.492-.375-.976-.771-1.471-1.16l-.092-.072a10.783 10.783 0 0 0 .387-2.291 11.754 11.754 0 0 0-.444-4.298 10.075 10.075 0 0 0-.572-1.604c-.231-.516-.523-.986-.813-1.481-.596-.973-1.408-1.797-2.328-2.584-.488 1.034-.808 2.157-.881 3.263-.042.559-.037 1.127.015 1.699.058.569.141 1.161.315 1.708a10.91 10.91 0 0 0 1.522 3.188c-.49-.442-.978-.896-1.44-1.382-.463-.466-.941-.925-1.4-1.404l-1.341-1.486-.674-.748-.211-.258a18.018 18.018 0 0 0 1.7-4.795c.182-.86.318-1.735.38-2.588.031-.427.047-.853.046-1.273-.004-.417.005-.857-.02-1.277-.201-3.196-1.156-6.261-3.146-9-.148-.212-.3-.423-.463-.63a13.737 13.737 0 0 0-3.159 9.476c.052 1.764.492 3.517 1.182 5.248.152.344.319.683.494 1.022-.377-.518-.773-1.025-1.116-1.566a76.015 76.015 0 0 1-3.736-6.094 10.703 10.703 0 0 0 1.66-2.905c.419-1.097.703-2.266.774-3.419.018-.29.025-.579.019-.866.003-.293-.003-.587-.024-.877a9.908 9.908 0 0 0-.271-1.729c-.069-.286-.163-.563-.248-.848a9.417 9.417 0 0 0-.303-.852l-.021-.057a9.817 9.817 0 0 0-.851-1.625 10.03 10.03 0 0 0-1.872 2.835 9.603 9.603 0 0 0-.56 1.631 11.255 11.255 0 0 0-.264 1.719 12.467 12.467 0 0 0-.006 1.793 13.32 13.32 0 0 0 .473 2.373 82.704 82.704 0 0 1-2.333-5.055c-.341-.841-.667-1.67-.99-2.494a16.701 16.701 0 0 0 1.739-1.882 17.116 17.116 0 0 0 1.503-2.21c.445-.768.799-1.55 1.132-2.363.331-.813.597-1.642.792-2.478.82-3.362.641-6.855-.716-10.27a14.753 14.753 0 0 0-3.547 3.654 15.27 15.27 0 0 0-1.221 2.246c-.341.789-.654 1.625-.844 2.476a18.17 18.17 0 0 0-.421 2.642c-.073.905-.038 1.817.037 2.747.042.463.09.934.175 1.397.038.198.08.396.125.595-.105-.302-.212-.606-.313-.905l-.997-3.229-.821-3.049c-.208-.811-.382-1.599-.557-2.357.983-.672 1.801-1.497 2.506-2.431a10.972 10.972 0 0 0 1.646-3.118c.386-1.113.625-2.287.632-3.474.028-1.192-.111-2.41-.517-3.613a10.119 10.119 0 0 0-2.517 2.296c-.354.451-.674.934-.957 1.444-.272.51-.499 1.044-.694 1.602-.383 1.114-.632 2.321-.641 3.558-.01.491.007.989.049 1.492l-.151-.785c-.152-.806-.315-1.558-.429-2.258-.111-.702-.213-1.346-.307-1.927-.089-.581-.183-1.099-.237-1.553-.05-.395-.092-.736-.127-1.025.511-.867.877-1.791 1.122-2.749.317-1.152.417-2.347.339-3.547-.048-1.201-.316-2.405-.766-3.576A11.966 11.966 0 0 0 7.992.001 11.082 11.082 0 0 0 6.2 3.482a11.332 11.332 0 0 0-.409 3.781c.1 1.253.427 2.474.928 3.583a9.25 9.25 0 0 0 1.728 2.483l.118 1.036c.049.457.141.98.224 1.567l.29 1.944c.107.707.264 1.466.409 2.281.051.274.105.558.156.845a14.441 14.441 0 0 0-.512-1.476c-.498-1.157-1.066-2.248-1.777-3.235a14.322 14.322 0 0 0-1.152-1.405 12.917 12.917 0 0 0-1.279-1.241 12.141 12.141 0 0 0-3.014-1.88c-.081 1.422.055 2.823.431 4.119.399 1.295.972 2.494 1.731 3.524a10.526 10.526 0 0 0 2.721 2.547 8.94 8.94 0 0 0 3.314 1.263c.169.765.337 1.561.539 2.381l.798 3.083c.316 1.056.64 2.148.975 3.272.103.315.213.637.32.956-.094-.198-.19-.396-.289-.591-.213-.428-.419-.853-.647-1.267-.448-.83-.969-1.619-1.494-2.385a21.876 21.876 0 0 0-1.697-2.19c-.624-.689-1.228-1.354-1.901-1.971a21.768 21.768 0 0 0-2.114-1.72A19.049 19.049 0 0 0-.128 20.23c-.012 4.43 1.726 8.571 4.361 11.488a16.435 16.435 0 0 0 2.139 1.96 13.689 13.689 0 0 0 2.418 1.453 13.24 13.24 0 0 0 2.58.912 12.49 12.49 0 0 0 2.582.325c.316.834.638 1.678.976 2.531a84.982 84.982 0 0 0 2.318 5.156 14.717 14.717 0 0 0-1.6-1.907 14.113 14.113 0 0 0-2.808-2.328 15.449 15.449 0 0 0-1.558-.883 12.368 12.368 0 0 0-3.394-1.085 13.3 13.3 0 0 0 .578 2.052c.008.022.019.045.027.068l.002.007c.04.105.082.208.123.312.014.034.027.069.042.103.075.186.155.369.238.55.144.313.323.612.5.905a12.605 12.605 0 0 0 1.863 2.356c.243.225.492.439.749.638 1.028.801 2.127 1.41 3.311 1.758a8.942 8.942 0 0 0 3.413.328 76.933 76.933 0 0 0 3.73 6.218c.344.555.74 1.075 1.12 1.607a22.764 22.764 0 0 0-.838-.807c-1.346-1.324-2.862-2.458-4.393-3.474-3.127-1.985-6.569-3.373-10.175-3.723.087.302.182.599.28.895 1.317 4.122 4.098 7.562 7.454 9.53.437.26.857.509 1.319.714.457.208.916.393 1.378.554.924.321 1.843.555 2.773.675a12.6 12.6 0 0 0 5.205-.446l.213.265c.226.256.454.513.679.77l1.355 1.53c.464.495.947.968 1.417 1.45.466.497.958.966 1.453 1.422a17.602 17.602 0 0 0-3.313-1.568c-.595-.191-1.157-.385-1.75-.525a14.375 14.375 0 0 0-1.787-.318c-1.219-.125-2.399-.14-3.583.042.695 1.313 1.699 2.398 2.764 3.31.524.463 1.128.834 1.726 1.165a12.19 12.19 0 0 0 1.836.818 10.07 10.07 0 0 0 3.785.47c.307-.022.605-.058.905-.115a8.535 8.535 0 0 0 2.266-.785c.031.025.063.049.092.075.505.404.996.816 1.498 1.204.517.369 1.027.735 1.532 1.098.506.36.998.73 1.522 1.04l1.524.956c.254.154.496.322.752.461l.109.059-.389-.127a23.066 23.066 0 0 0-2.723-.806l-.347-.077-.338-.088a22.846 22.846 0 0 0-2.062-.428c-.461-.08-.939-.129-1.396-.197a23.462 23.462 0 0 0-1.379-.163 27.388 27.388 0 0 0-2.792-.095 21.868 21.868 0 0 0-5.46.673c.718.935 1.533 1.786 2.38 2.571l.323.29.339.269a22.398 22.398 0 0 0 2.119 1.452c.242.145.481.288.729.418a21.41 21.41 0 0 0 2.295.971c.257.091.513.176.77.255.254.082.51.154.776.207.525.116 1.048.207 1.565.275 2.047.309 4.102.078 5.885-.463.224-.07.442-.14.663-.224a12.185 12.185 0 0 0 1.879-.936c.67-.408 1.287-.879 1.854-1.402a21.19 21.19 0 0 0 1.77.741l1.351.52.65.251.647.202 2.402.748.152.037a22.821 22.821 0 0 0-1.255.003c-.621.023-1.24.086-1.855.186-2.427.319-4.807 1.175-6.788 2.506 1.252.89 2.68 1.405 4.083 1.734.697.178 1.418.225 2.116.238.7.009 1.384-.036 2.042-.137.327-.042.653-.127.971-.221a11 11 0 0 0 .928-.317 9.627 9.627 0 0 0 1.682-.857 8.7 8.7 0 0 0 .743-.534 8.438 8.438 0 0 0 1.521-1.664c.34.056.65.106.92.156.784.13 1.279.226 1.452.242.897.1 1.957.244 2.984.344.094.011.189.02.283.027-.269.082-.539.164-.799.269a8.22 8.22 0 0 0-1.84 1.016 7.882 7.882 0 0 0-1.507 1.441c.391.15.827.212 1.243.266a8.07 8.07 0 0 0 1.249.044c.81-.041 1.632-.172 2.239-.505a6.024 6.024 0 0 0 2.548-2.307 2.246 2.246 0 0 0 3.947.398 3.28 3.28 0 0 0 6.065 0 2.247 2.247 0 0 0 3.947-.398 6.03 6.03 0 0 0 2.548 2.307c.607.332 1.43.464 2.239.505.409.018.828.003 1.249-.044.415-.053.852-.115 1.242-.266a7.794 7.794 0 0 0-1.507-1.441 8.249 8.249 0 0 0-1.841-1.016 9.486 9.486 0 0 0-.799-.269 5.66 5.66 0 0 0 .314-.032c1.018-.096 2.065-.24 2.952-.338.173-.016.669-.111 1.452-.242.271-.05.581-.101.92-.156.254.364.537.712.847 1.036a7.264 7.264 0 0 0 1.417 1.162c.518.333 1.081.62 1.682.857.301.118.61.224.929.317.317.094.646.179.971.221a12.41 12.41 0 0 0 2.041.137c.699-.013 1.419-.06 2.117-.238 1.403-.329 2.831-.844 4.083-1.734-1.979-1.331-4.361-2.186-6.787-2.506a15.411 15.411 0 0 0-1.856-.186c-.417-.016-.833-.01-1.255-.003l.152-.037 2.402-.748c.213-.065.428-.134.647-.202l.65-.251 1.351-.52a21.475 21.475 0 0 0 1.77-.741c.566.523 1.183.994 1.854 1.402a12.39 12.39 0 0 0 1.881.936c.219.084.437.154.661.224 1.784.541 3.838.771 5.885.463.517-.068 1.04-.159 1.566-.275.266-.053.522-.125.776-.207a20.39 20.39 0 0 0 3.066-1.226c.249-.13.487-.274.729-.418a22.398 22.398 0 0 0 2.119-1.452l.34-.269.322-.29c.847-.785 1.662-1.636 2.38-2.571a21.88 21.88 0 0 0-5.46-.673c-.924-.008-1.87.01-2.792.095-.462.041-.922.095-1.378.163-.457.067-.935.117-1.396.197a23.651 23.651 0 0 0-2.062.428l-.339.088-.347.077c-.925.214-1.832.481-2.722.806-.129.04-.259.084-.389.127l.11-.059c.256-.139.498-.307.752-.461l1.524-.956c.524-.31 1.015-.679 1.521-1.04.505-.362 1.015-.729 1.533-1.098.501-.389.994-.8 1.497-1.204l.092-.075a8.572 8.572 0 0 0 2.266.785c.301.057.6.093.906.115 1.219.085 2.523-.06 3.785-.47a12.156 12.156 0 0 0 1.837-.818c.598-.331 1.202-.702 1.726-1.165 1.066-.912 2.07-1.997 2.765-3.31-1.184-.182-2.364-.167-3.583-.042-.602.068-1.2.174-1.787.318-.593.14-1.155.334-1.749.525a17.573 17.573 0 0 0-3.313 1.568c.496-.456.987-.924 1.454-1.422.469-.482.952-.955 1.416-1.45a1384.684 1384.684 0 0 1 2.036-2.3l.212-.265a12.6 12.6 0 0 0 5.205.446 13.82 13.82 0 0 0 2.773-.675c.461-.161.92-.347 1.377-.554.462-.206.883-.455 1.319-.714 3.357-1.968 6.137-5.407 7.452-9.53.1-.296.195-.593.283-.895-3.606.351-7.049 1.738-10.176 3.723-1.531 1.016-3.047 2.15-4.393 3.474-.287.261-.565.531-.838.807.379-.532.776-1.052 1.12-1.607a76.933 76.933 0 0 0 3.73-6.218 8.942 8.942 0 0 0 3.413-.328c1.184-.348 2.283-.957 3.311-1.758.256-.199.505-.413.748-.638.234-.229.457-.469.673-.721.432-.503.831-1.051 1.189-1.635.176-.293.356-.592.501-.905.083-.181.162-.364.237-.549l.048-.122c.039-.098.079-.195.116-.294l.002-.007c.009-.023.019-.045.027-.068a13.3 13.3 0 0 0 .578-2.052 12.375 12.375 0 0 0-3.395 1.085c-.539.258-1.042.559-1.557.883a14.07 14.07 0 0 0-2.808 2.328 14.71 14.71 0 0 0-1.601 1.907 84.982 84.982 0 0 0 2.318-5.156c.338-.853.659-1.697.977-2.531a12.55 12.55 0 0 0 2.581-.325c.878-.21 1.741-.516 2.58-.912a13.689 13.689 0 0 0 2.418-1.453 16.429 16.429 0 0 0 2.139-1.96c2.634-2.918 4.373-7.059 4.361-11.488a18.992 18.992 0 0 0-4.73 2.556zm-5.048-13.525a8.558 8.558 0 0 1 .035-1.257c.045-.423.126-.849.232-1.267a5.442 5.442 0 0 1 1.286-2.352c.587.758.905 1.62 1.041 2.498.073.438.078.881.049 1.316a8.972 8.972 0 0 1-.181 1.276c-.332 1.651-1.151 3.008-1.61 3.536-.332-.628-.757-2.105-.852-3.75zm.084 12.535a11.812 11.812 0 0 1 1.29-3.069c.816-1.389 1.934-2.588 3.36-2.548.192.808.083 1.606-.208 2.343-.293.737-.809 1.408-1.367 1.982a9.178 9.178 0 0 1-1.763 1.399c-.577.349-1.119.57-1.477.649.027-.211.084-.467.165-.756zm-1.446.48c-.295-.219-.676-.631-1.079-1.164a10.353 10.353 0 0 1-1.14-1.883 6.508 6.508 0 0 1-.604-2.173c-.065-.734.06-1.454.478-2.113 1.369.348 2.12 1.766 2.432 3.319.142.773.185 1.577.162 2.289-.01.355-.037.687-.076.981a5.49 5.49 0 0 1-.173.744zM7.182 9.476a8.83 8.83 0 0 1-.18-1.276 5.643 5.643 0 0 1 .048-1.316c.136-.878.454-1.74 1.04-2.498a5.429 5.429 0 0 1 1.287 2.352c.105.418.188.844.232 1.267.044.423.053.845.035 1.257-.096 1.645-.52 3.122-.851 3.75-.46-.528-1.278-1.885-1.611-3.536zM8.25 21.903a9.2 9.2 0 0 1-1.763-1.399c-.557-.574-1.074-1.245-1.367-1.982-.291-.737-.4-1.535-.208-2.343 1.426-.04 2.545 1.159 3.36 2.548a11.737 11.737 0 0 1 1.289 3.069c.082.289.138.545.166.755-.359-.078-.901-.299-1.477-.648zm2.671-3.64c.311-1.553 1.062-2.971 2.43-3.319.418.659.543 1.378.478 2.113a6.49 6.49 0 0 1-.604 2.173 10.297 10.297 0 0 1-1.14 1.883c-.403.533-.783.945-1.079 1.164a5.356 5.356 0 0 1-.172-.744 10.91 10.91 0 0 1 .087-3.27zm3.016 10.692c.023-.292.055-.584.098-.87.047-.287.115-.572.188-.847.15-.552.348-1.072.599-1.54.502-.934 1.225-1.655 2.227-2.012.724.898 1.018 1.923 1.028 3.006.039 1.072-.184 2.196-.558 3.283a20.243 20.243 0 0 1-.616 1.569c-.224.501-.468.976-.715 1.408-.494.866-1.002 1.564-1.399 1.952-.257-.571-.519-1.471-.703-2.518a13 13 0 0 1-.121-.81 18.167 18.167 0 0 1-.057-.858 15.049 15.049 0 0 1 .029-1.763zm-2.983 5.818a13.685 13.685 0 0 1-1.461-.753 11.021 11.021 0 0 1-1.469-1.025c-.934-.777-1.802-1.721-2.391-2.795-.56-1.081-.857-2.285-.703-3.544 1.062-.13 2.067.223 2.982.847.459.313.893.692 1.301 1.118.206.212.399.438.596.667.199.23.392.468.577.711a17.23 17.23 0 0 1 1.456 2.263c.141.25.282.496.408.737.508.962.859 1.84 1.014 2.461-.547-.046-1.375-.275-2.31-.687zm9.82 7.47a12.254 12.254 0 0 1-.589 2.107c-.235.615-.498 1.122-.721 1.412a6.764 6.764 0 0 1-.721-1.583 10.927 10.927 0 0 1-.437-2.25 6.398 6.398 0 0 1 0-1.158c.042-.381.118-.746.234-1.083.233-.674.632-1.231 1.251-1.577.57.521.86 1.185.997 1.898.147.706.116 1.479-.014 2.234zm-4.065 3.912a8.137 8.137 0 0 1-2.086-.877c-.694-.409-1.354-.934-1.854-1.567a3.847 3.847 0 0 1-.816-2.229c.681-.204 1.373-.083 2.034.227.332.154.653.359.964.595.311.234.63.494.921.775a11.888 11.888 0 0 1 1.517 1.786c.418.588.756 1.122.918 1.515-.366.02-.937-.048-1.598-.225zm7.451 5.143c-.242-1.152-.339-2.297-.096-3.345.227-1.039.726-1.928 1.586-2.553.464.32.833.702 1.124 1.131.146.212.264.445.384.673.119.229.218.469.303.716.168.496.275 1.027.332 1.578.031.274.041.56.057.835.017.275.021.553.017.833-.014 1.114-.177 2.25-.382 3.224-.188.96-.439 1.775-.689 2.266-.434-.45-.997-1.192-1.463-2.151-.479-.946-.947-2.043-1.173-3.207zm-6.193.369c1.035.358 2.131.959 3.116 1.685.968.736 1.93 1.532 2.696 2.306.753.783 1.399 1.483 1.754 2.017-.538.134-1.404.187-2.44.094a12.972 12.972 0 0 1-4.209-1.204 8.415 8.415 0 0 1-.815-.467 9.147 9.147 0 0 1-1.472-1.166 7.59 7.59 0 0 1-.625-.693 5.19 5.19 0 0 1-.498-.781 5.81 5.81 0 0 1-.607-1.778c.983-.425 2.049-.361 3.1-.013zm14.469 10.396c-.637-1.45-.851-2.997.079-4.062.713.272 1.218.76 1.581 1.375.184.304.319.652.447.995.129.342.229.703.304 1.072a10.9 10.9 0 0 1 .194 2.648 7.612 7.612 0 0 1-.024.424c-.024.267-.06.494-.108.67a4.112 4.112 0 0 1-.589-.478 9.356 9.356 0 0 1-.651-.732c-.444-.554-.903-1.203-1.233-1.912zm.976 4.357a6.318 6.318 0 0 1-.433.095 6.997 6.997 0 0 1-.48.064 8.935 8.935 0 0 1-2.275-.07 7.744 7.744 0 0 1-1.212-.292 5.13 5.13 0 0 1-1.106-.54c-.687-.441-1.265-1.043-1.598-1.822 1.149-.843 2.799-.517 4.267.15.749.322 1.484.706 2.087 1.104.304.199.578.397.811.586.235.188.448.346.599.496-.168.08-.391.16-.66.229zm7.963 1.945c-.347-.466-.656-.95-.906-1.441a6.885 6.885 0 0 1-.506-1.549c-.197-1.029-.08-2.027.47-2.935.543.094 1.018.28 1.439.542.425.257.782.613 1.134.966.343.366.644.792.913 1.257.134.233.26.477.378.726.116.256.241.485.349.74.442.995.774 2.073 1.004 3.046.243.941.381 1.775.375 2.327a8.026 8.026 0 0 1-1.036-.465c-.386-.209-.789-.504-1.211-.82-.42-.32-.85-.679-1.266-1.068-.413-.4-.788-.864-1.137-1.326zm1.806 6.315c-.963.335-2.149.599-3.421.675-.314.015-.646.036-.958.011a10.636 10.636 0 0 1-.954-.099 9.541 9.541 0 0 1-1.877-.472c-.617-.211-1.163-.547-1.67-.938a6.035 6.035 0 0 1-1.324-1.415c.742-.773 1.765-1.129 2.884-1.225a8.813 8.813 0 0 1 1.736.036c.608.044 1.225.134 1.832.258.608.12 1.197.293 1.778.455.587.148 1.149.32 1.665.502.519.178.983.386 1.405.557.424.166.786.334 1.065.493-.422.358-1.181.794-2.161 1.162zm10.299-.456c-1.243-.976-2.145-2.232-1.814-3.607.747-.098 1.409.088 2.007.455.3.18.579.42.85.664.273.235.531.504.771.789.954 1.136 1.662 2.567 1.843 3.249-.418-.013-1.013-.2-1.667-.464a11.363 11.363 0 0 1-1.509-.754 3.892 3.892 0 0 1-.481-.332zm.185 4.963c-.39.137-.798.249-1.215.324-.415.068-.83.072-1.243.041-.826-.068-1.634-.328-2.304-.864.627-1.278 2.254-1.766 3.865-1.871.202-.008.407-.024.611-.04a12.56 12.56 0 0 1 1.756.01 12.59 12.59 0 0 1 1.759.271c-.431.632-1.664 1.577-3.229 2.129zm9.054-3.622c-.283-.309-.461-.669-.476-1.08a1.63 1.63 0 0 1 .607-.09c.203.007.393.059.615.111.428.115.838.34 1.205.611.733.541 1.29 1.264 1.454 1.656-.488.028-1.448-.118-2.302-.475a4.316 4.316 0 0 1-.611-.309 2.83 2.83 0 0 1-.492-.424zm1.814 3.813c-.383.247-.808.445-1.243.533-.209.05-.455.043-.688.01a2.252 2.252 0 0 1-.693-.215c.075-.404.323-.722.661-.971.168-.124.359-.23.563-.323.198-.104.412-.193.631-.268.862-.298 1.81-.382 2.302-.329l.006.036c-.207.389-.794 1.047-1.539 1.527zm17.157-4.261c.367-.271.777-.496 1.205-.611.223-.052.412-.104.615-.111.201-.008.404.02.607.09-.016.411-.193.771-.477 1.08-.14.154-.307.297-.492.425a4.42 4.42 0 0 1-.611.308c-.854.357-1.814.502-2.302.475.165-.393.721-1.116 1.455-1.656zm2.102 3.619c.335.249.584.567.659.971a2.244 2.244 0 0 1-.693.215c-.232.033-.479.04-.688-.01-.436-.088-.859-.287-1.243-.533-.746-.48-1.332-1.138-1.538-1.526l.006-.036c.492-.054 1.44.03 2.302.329.22.075.433.164.631.268.203.091.394.197.564.322zm7.274-6.213c.24-.284.498-.553.771-.789.27-.244.55-.483.85-.664.598-.367 1.261-.553 2.007-.455.331 1.375-.573 2.631-1.815 3.607a3.53 3.53 0 0 1-.48.33 11.104 11.104 0 0 1-1.509.754c-.653.264-1.248.451-1.666.464.18-.679.887-2.11 1.842-3.247zm2.527 4.294c1.611.104 3.238.592 3.865 1.871-.669.536-1.478.796-2.303.864-.415.031-.83.027-1.245-.041a7.895 7.895 0 0 1-1.215-.324c-1.566-.552-2.799-1.497-3.229-2.129a12.572 12.572 0 0 1 1.758-.271 12.545 12.545 0 0 1 1.756-.01c.207.016.412.033.613.04zm7.118-7.1c.23-.973.562-2.051 1.004-3.046.108-.254.232-.483.349-.74.119-.249.244-.493.378-.725.268-.466.569-.892.913-1.258.352-.353.71-.709 1.133-.966a3.978 3.978 0 0 1 1.439-.542c.549.908.667 1.906.47 2.935a6.987 6.987 0 0 1-.506 1.549c-.249.491-.559.975-.905 1.441-.349.462-.724.926-1.135 1.326-.416.389-.846.748-1.266 1.068-.422.316-.825.611-1.211.82a8.026 8.026 0 0 1-1.036.465c-.007-.551.13-1.386.373-2.327zm4.443 2.249c.581-.161 1.168-.335 1.778-.455a14.316 14.316 0 0 1 1.832-.258 8.821 8.821 0 0 1 1.737-.036c1.119.096 2.142.452 2.883 1.225a6.054 6.054 0 0 1-1.324 1.415c-.507.391-1.053.727-1.669.938a9.64 9.64 0 0 1-1.878.472c-.318.047-.636.081-.954.099-.313.025-.644.004-.959-.011a12.989 12.989 0 0 1-3.421-.675c-.979-.368-1.738-.804-2.161-1.162.28-.159.641-.327 1.065-.493.422-.17.886-.379 1.406-.557a19.137 19.137 0 0 1 1.665-.502zm6.359-10.523c.075-.368.175-.729.304-1.072.128-.343.265-.691.449-.995.362-.614.867-1.102 1.58-1.375.929 1.065.716 2.611.079 4.062-.33.708-.789 1.358-1.231 1.912a9.782 9.782 0 0 1-.652.732c-.207.208-.418.36-.589.478a4.01 4.01 0 0 1-.108-.67 7.557 7.557 0 0 1-.024-.424 10.68 10.68 0 0 1 .192-2.648zm4.273 2.562c1.467-.667 3.118-.994 4.267-.15-.332.779-.911 1.38-1.598 1.822a5.1 5.1 0 0 1-1.105.54 7.77 7.77 0 0 1-1.212.292 8.95 8.95 0 0 1-2.277.07 7.136 7.136 0 0 1-.479-.064 7.177 7.177 0 0 1-.434-.095 3.773 3.773 0 0 1-.658-.228c.151-.15.364-.309.599-.496.233-.188.508-.386.812-.586.6-.399 1.337-.782 2.085-1.105zm4.923-18.605c.861.625 1.359 1.514 1.586 2.553.245 1.048.146 2.193-.096 3.345-.225 1.164-.694 2.26-1.175 3.208-.466.958-1.029 1.701-1.463 2.151-.249-.491-.501-1.306-.688-2.266-.205-.975-.367-2.11-.381-3.224-.004-.28.001-.558.017-.833.016-.275.026-.561.057-.835a7.307 7.307 0 0 1 .332-1.578 5.47 5.47 0 0 1 .303-.716c.12-.228.237-.46.384-.673.291-.43.661-.811 1.124-1.132zm4.569 7.952c.985-.726 2.081-1.327 3.115-1.685 1.051-.348 2.117-.412 3.098.012a5.808 5.808 0 0 1-.606 1.778 5.14 5.14 0 0 1-.498.781 7.59 7.59 0 0 1-.625.693 9.214 9.214 0 0 1-1.472 1.166 8.281 8.281 0 0 1-.814.467 12.971 12.971 0 0 1-4.208 1.204c-1.036.093-1.902.041-2.44-.094.355-.533 1.001-1.233 1.754-2.017.765-.773 1.727-1.569 2.696-2.305zm.897-9.002a12.254 12.254 0 0 1-.589-2.107c-.13-.755-.161-1.528-.014-2.235.137-.713.427-1.377.996-1.898.62.346 1.018.903 1.252 1.577.116.337.192.702.234 1.083.041.38.029.767-.001 1.158-.063.783-.231 1.57-.437 2.25a6.867 6.867 0 0 1-.721 1.583c-.222-.289-.485-.796-.72-1.411zm7.416-.64c-.5.633-1.16 1.158-1.853 1.567a8.102 8.102 0 0 1-2.086.877c-.662.177-1.233.246-1.601.224.162-.393.501-.926.919-1.515.41-.593.929-1.225 1.516-1.786.292-.281.611-.541.922-.775a5.3 5.3 0 0 1 .963-.595c.662-.311 1.354-.431 2.035-.227a3.833 3.833 0 0 1-.815 2.23zm-3.419-10.758a15.929 15.929 0 0 1-.715-1.408 20.654 20.654 0 0 1-.616-1.569c-.374-1.087-.597-2.211-.558-3.283.012-1.083.304-2.109 1.028-3.006 1.002.357 1.725 1.078 2.227 2.012.252.468.449.988.599 1.54.074.274.141.56.188.847.043.286.075.578.098.87.045.586.051 1.181.028 1.764-.012.29-.031.577-.056.858-.031.278-.076.548-.121.81-.185 1.047-.446 1.946-.704 2.518-.397-.389-.905-1.087-1.398-1.953zm10.555-2.752c-.587 1.074-1.457 2.019-2.39 2.795-.461.389-.972.728-1.47 1.025-.499.297-.993.548-1.462.753-.933.412-1.762.641-2.308.687.154-.621.505-1.499 1.013-2.461.127-.241.267-.487.409-.737a16.85 16.85 0 0 1 1.454-2.263c.185-.243.378-.481.577-.711.197-.23.39-.455.595-.667a8.365 8.365 0 0 1 1.301-1.118c.915-.624 1.92-.977 2.982-.847.154 1.259-.142 2.463-.701 3.544z"/></symbol><symbol viewBox="0 0 144.74 62.24" id="wreath2" xmlns="http://www.w3.org/2000/svg"><path d="M1.03 12.034c.798 1.771 1.802 2.96 3.582 3.375a.518.518 0 0 0 .163.58c3.621 3.216 5.497 5.914 5.93 10.883.205 2.341.452 4.704 1.887 6.653 1.43 1.941 3.712 3.223 6.097 3.526a.567.567 0 0 0 .205.226c3.303 2.088 6.056 4.563 8.005 7.993 1.36 2.391 2.29 5.126 4.433 6.971 2.324 2.002 5.571 2.445 8.332 1.446a.526.526 0 0 0 .422.14c4.391-.322 8.324.927 11.531 3.987 1.752 1.673 3.131 3.481 5.569 4.139 3.07.83 6.276-.208 8.308-2.461 4.005-1.096 7.885-2.085 11.845-.004 2.285 1.201 4.299 2.632 6.977 2.646 3.674.021 7.084-2.299 8.119-5.758.848-.371 1.57-.89 2.414-1.4 1.951-1.181 3.959-1.773 6.236-1.938 3.092-.224 6.394.618 9.358-.552 2.918-1.151 4.712-3.914 4.9-6.866 1.96-3.254 4.333-6.156 8.216-7.095 2.471-.597 5.233-.636 7.272-2.356 2.488-2.099 3.048-5.895 2.016-8.953a.288.288 0 0 0 .08-.149c.761-4.017 2.915-6.706 6.016-9.218 2.125-1.722 3.962-3.585 5.028-6.15 1.7-4.093.619-8.784-3.527-10.847-3.904-1.944-8.503-.432-10.759 3.25-1.388 2.264-1.224 4.453-1.216 6.998.011 4.271-1.885 7.482-4.737 10.531-.042.044-.06.091-.086.137a8.11 8.11 0 0 0-3.431 1.438c-2.071 1.509-2.891 3.708-3.704 6.037-1.426 4.087-3.833 6.086-7.608 7.967l-.011.009a9.613 9.613 0 0 0-5.085.246c-2.469.805-4.046 2.417-5.634 4.388-2.657 3.296-6.249 4.984-10.508 4.704a.519.519 0 0 0-.326.084 11.81 11.81 0 0 0-2.698-.743c-2.961-.448-5.026.52-7.509 1.982-3.901 2.299-8.069 2.247-11.852-.248a.526.526 0 0 0-.275-.087 9.218 9.218 0 0 0-1.93-1.473c-1.83-1.046-3.893-1.397-5.973-1.164-4.857.547-8.361 1.872-12.361-1.894-.015-.009-.028-.014-.041-.023a8.612 8.612 0 0 0-1.937-3.25c-1.907-2.004-4.262-2.485-6.866-3.035-4.369-.921-6.179-3.875-8.583-7.277-.014-.02-.032-.032-.047-.047a7.637 7.637 0 0 0-1.059-3.238c-1.444-2.426-3.843-3.987-5.911-5.819-3.111-2.755-4.9-6.277-5.503-10.345.394-1.901.023-3.952-.968-5.729C12.372.607 6.794-.553 3.51 1.079-.607 3.125-.628 8.358 1.03 12.034zM132.346 26.04a7.56 7.56 0 0 0-.608-1.003 8.281 8.281 0 0 0-6.283-3.379c2.427-2.592 4.33-5.874 4.405-9.475.061-2.937-.473-5.517 1.488-8.051 2.114-2.733 5.757-3.655 8.825-1.922 7.009 3.956 1.473 11.597-2.622 15.081-2.887 2.457-4.645 5.105-5.205 8.749zM114.77 42.09c-.834-2.027-2.352-3.469-4.167-4.294 3.206-1.698 5.547-3.594 6.849-7.243 1.061-2.971 1.813-5.776 5.046-7.085 3.256-1.318 7.038.024 8.697 3.149 1.947 3.668.465 8.434-3.585 9.743-1.901.614-3.952.623-5.825 1.353-2.99 1.165-5.015 3.594-6.503 6.322a7.842 7.842 0 0 0-.512-1.945zm-25.349 5.692c3.328-.093 6.415-1.381 8.775-3.898 1.889-2.016 3.118-4.238 5.961-5.143 3.036-.967 6.376-.352 8.398 2.249 2.363 3.042 1.847 7.509-1.45 9.677-2.649 1.743-6.042.917-9.016 1.038-2.034.083-4.114.373-5.98 1.228-1.313.602-2.328 1.582-3.452 2.417.023-.155.052-.308.066-.467.279-3.093-1.107-5.527-3.302-7.101zm-23.014 10.48a8.07 8.07 0 0 0 .645-1.312c.934-2.45.692-5.049-.446-7.216 2.76 1.335 5.955 1.562 8.897.43 2.834-1.09 4.908-3.254 8.147-3.089 4.252.218 8.189 3.162 7.719 7.714-.386 3.75-3.786 6.296-7.503 6.043-2.916-.2-5.042-2.326-7.682-3.281-3.102-1.123-6.713-.628-9.777.711zm-24.579-5.748a7.859 7.859 0 0 0 1.109-1.007c1.813-2.002 2.494-4.656 2.092-7.164 1.888 2.35 4.723 3.112 7.823 2.671 3.292-.467 6.448-1.57 9.556.194 2.983 1.694 4.537 5.124 3.705 8.464-.9 3.611-4.463 5.934-8.16 5.184-2.94-.596-4.417-3.217-6.587-4.983-2.729-2.219-6.082-3.341-9.538-3.359zm-21.023-15.46a7.587 7.587 0 0 0 2.171-.603c2.523-1.134 4.019-3.3 4.281-5.692 1.453 2.993 3.512 5.668 6.796 6.759 2.78.923 5.668.815 7.808 3.127 2.586 2.793 2.711 7.087.173 9.959-2.298 2.602-6.388 3.109-9.271 1.155-2.454-1.662-3.372-4.679-4.774-7.125-1.755-3.064-4.205-5.701-7.184-7.58zM6.223 15.613c2.146.123 4.397-.216 6.089-1.588a7.044 7.044 0 0 0 1.955-2.482c.329 3.433 1.808 6.511 4.379 8.999 1.585 1.532 3.457 2.748 4.962 4.366 2.838 3.049 3.511 7.614-.466 10.002-2.897 1.738-6.792.875-9.023-1.55-2.071-2.253-1.933-5.268-2.278-8.105-.514-4.228-2.609-6.896-5.618-9.642zm.13-14.015c2.9-.128 5.301 1.134 6.783 3.597a.46.46 0 0 0 .212.185c.863 2.704.672 5.68-1.698 7.671-3.046 2.56-8.277 1.768-9.772-1.995-1.543-3.885-.629-9.232 4.475-9.458z"/><path d="M6.625 10.994c1.675.462 3.519-.744 3.853-2.428.338-1.711-.943-3.344-2.637-3.522-.012-.001-.019.003-.03.002-1.316-.314-2.853.718-3.304 1.947-.598 1.626.472 3.546 2.118 4.001zm-.889-3.891c.546-.912 1.497-.956 2.444-.954a.43.43 0 0 0 .181-.04c.74.559 1.25 1.49.946 2.414-.321.976-1.512 1.65-2.501 1.309-1.054-.365-1.654-1.754-1.07-2.729zM17.934 32.51c1.837.779 4.141-.397 4.671-2.303.397-1.424-.288-2.921-1.47-3.656l-.003-.003c-1.528-1.335-4.16-.456-5.003 1.265-.835 1.709.075 3.963 1.805 4.697zm-.651-4.353c.778-1.224 2.149-1.118 3.338-.731a.457.457 0 0 0 .14.018c.678.687 1.072 1.649.717 2.601-.448 1.198-1.985 1.928-3.161 1.369-1.137-.543-1.735-2.154-1.034-3.257zM37 49.573c2.104-.035 3.785-1.905 3.532-3.994-.156-1.289-1.797-3.537-3.236-2.839-1.664-.432-3.563 1.313-3.767 2.896-.262 2.021 1.423 3.971 3.471 3.937zm-2.229-4.065c.391-1.414 1.688-1.497 2.884-1.624a.52.52 0 0 0 .421-.299c1.88 1.238 1.615 4.859-1.222 4.759-1.355-.048-2.448-1.513-2.083-2.836zm24.195 11.157c2.019.296 3.896-1.331 3.815-3.399-.051-1.316-1.101-2.517-2.335-2.737-1.645-1.047-3.917.069-4.37 1.895-.493 1.993.881 3.947 2.89 4.241zm-1.771-3.675c.149-1.388 1.572-1.987 2.77-1.474a.585.585 0 0 0 .366.035c.666.343 1.191.892 1.238 1.716.072 1.254-1.014 2.316-2.257 2.222-1.275-.098-2.255-1.213-2.117-2.499zm24.062 3.528c1.39 1.31 3.81 1.419 5.15-.02 1.056-1.135 1.158-2.843.444-4.142.103-.163.138-.372.04-.546-1.034-1.831-3.936-1.961-5.415-.655-1.548 1.365-1.756 3.916-.219 5.363zm1.06-4.523c1.131-.954 2.374-.486 3.418.214.708 1.01.691 2.524-.158 3.461-.884.975-2.492.842-3.434.032-1.13-.973-.921-2.784.174-3.707zm22.364-3.9c1.901 1.171 4.712.546 5.655-1.558.634-1.415.213-4.448-1.612-4.848-1.443-1.137-3.759-.777-4.897.728-1.311 1.736-1.074 4.489.854 5.678zm-.082-4.558c.811-1.523 2.776-1.671 3.849-.374.151.183.35.214.534.165.071.117.142.235.195.37.265.666.341 1.439.104 2.126-.501 1.45-2.307 1.965-3.64 1.368-1.399-.628-1.721-2.379-1.042-3.655zm18.754-11.334c1.683.928 4.011.564 4.856-1.299.368-.81.412-1.791.096-2.628a2.538 2.538 0 0 0-.394-.699c-.009-.017-.011-.035-.022-.051-1.24-1.939-4.611-2.378-5.885-.281-1.058 1.74-.415 3.984 1.349 4.958zm-.303-4.348c1.104-1.725 2.68-.231 4.008.269.322.69.371 1.558.125 2.183-.516 1.306-2.11 1.468-3.226.861-1.186-.644-1.655-2.145-.907-3.313zm11.326-16.298c.007.004.016.004.024.007-.026.238.06.478.308.602 1.78.885 4.013.053 4.982-1.65 1.007-1.769.102-3.853-1.591-4.786-1.675-.923-3.8-.49-4.751 1.233-.836 1.513-.629 3.739 1.028 4.594zm2.94-4.75c1.195.554 1.917 1.952 1.167 3.154-.709 1.135-2.071 1.487-3.273 1.012a.52.52 0 0 0-.468.03c-1.214-1.917-.219-5.49 2.574-4.196z"/></symbol><symbol viewBox="0 0 141.58 86.4" id="wreath3" xmlns="http://www.w3.org/2000/svg"><path d="M134.656 30.265a14.08 14.08 0 0 0-1.398 1.094c-.223.2-.44.409-.646.626a10 10 0 0 0-.61.676 7.914 7.914 0 0 0-.844 1.247 90.106 90.106 0 0 0 2.011-7.215l.474-2.165c.076-.343.142-.678.203-1.004-.007.084-.019.169-.024.255 0 0-.065.36-.187.896l-.436 1.969-.488 1.957-.162.644-.068.243c.126-.434 1.242-1.116 2.569-2.045a21.16 21.16 0 0 0 1.985-1.576c.318-.29.626-.593.9-.907.268-.314.51-.64.711-.972 1.621-2.659 2.636-6.259 2.842-9.237-.327.122-.954.438-1.709.918a19.676 19.676 0 0 0-2.5 1.893c-.428.387-.847.808-1.233 1.261-.386.454-.764.937-1.075 1.453a8.67 8.67 0 0 0-.777 1.649 7.343 7.343 0 0 0-.112.356c.207-1.076.343-2.018.475-2.796.073-.426.129-.805.171-1.134l.114-.832.016-.111c.574-1.014 1.238-2.149 1.857-3.331a29.802 29.802 0 0 0 1.409-3.085c.363-1.011.621-1.98.679-2.83.044-.851-.138-1.813-.441-2.767a18.62 18.62 0 0 0-1.197-2.73c-.913-1.663-1.833-2.865-1.833-2.865s-.942 1.211-1.892 2.788c-.491.789-.984 1.669-1.359 2.55-.394.879-.675 1.759-.715 2.561-.055.8.057 1.733.273 2.739.189 1.002.492 2.08.788 3.155.341 1.235.696 2.475.962 3.592a28.285 28.285 0 0 1-.332 2.057c-.143.768-.294 1.701-.517 2.764.014-.13.027-.26.034-.389.036-.603-.044-1.205-.166-1.782a8.392 8.392 0 0 0-.553-1.668 11.337 11.337 0 0 0-.832-1.501 13.054 13.054 0 0 0-1.941-2.318c-.625-.597-1.166-1.001-1.456-1.176-.388 2.613-.458 5.832.057 8.598.066.346.171.704.305 1.068.128.361.278.728.448 1.096.336.734.751 1.475 1.121 2.156.733 1.358 1.395 2.516 1.273 2.941l.069-.238.166-.63.504-1.915.451-1.928c.128-.525.196-.879.196-.879.029-.086.053-.17.079-.255a31 31 0 0 1-.222 1.013l-.501 2.123a87.83 87.83 0 0 1-2.084 7.027 7.702 7.702 0 0 0-.081-2.348 9.32 9.32 0 0 0-.217-.852 11.187 11.187 0 0 0-.623-1.587c-.482-.997-1.1-1.868-1.64-2.529-.545-.664-1.025-1.125-1.299-1.333-.712 2.501-1.173 5.631-1.047 8.407.084 1.393.683 3.045 1.238 4.513.421 1.169.803 2.205.841 2.773a69.051 69.051 0 0 1-1.949 3.912 7.37 7.37 0 0 0 .114-2.759 10.942 10.942 0 0 0-.361-1.656c-.675-2.131-1.844-3.748-2.329-4.239l-.391.898c-.13.307-.255.623-.373.947-.225.655-.47 1.316-.669 2.003-.103.341-.188.693-.281 1.038a18.677 18.677 0 0 0-.454 2.084c-.06.345-.119.685-.16 1.025-.042.34-.051.704-.035 1.083.007.189.023.384.039.58.013.192.032.389.054.586.089.79.238 1.61.38 2.377.183 1.101.35 2.094.331 2.692l-.233.337c-.729.955-1.433 1.943-2.227 2.873l-.074.091c.081-.206.155-.414.218-.624a6.73 6.73 0 0 0 .198-.851 9.979 9.979 0 0 0 .045-2.558c-.268-2.213-1.132-4-1.524-4.567-.172.261-.355.524-.539.795-.181.272-.359.555-.531.846-.334.592-.697 1.182-1.015 1.809-.164.311-.307.638-.466.95a18.032 18.032 0 0 0-.834 1.933c-.129.318-.25.639-.357.962-.407 1.302-.46 3.034-.495 4.599-.045 1.005-.083 1.925-.197 2.522-.745.688-1.525 1.34-2.291 2.008-.25.195-.499.392-.748.589.06-.099.12-.198.175-.298a6.972 6.972 0 0 0 .643-1.621 10.44 10.44 0 0 0 .311-1.656 12.393 12.393 0 0 0-.323-4.068 6.075 6.075 0 0 0-.229-.703c-.218.219-.453.432-.686.658-.232.226-.462.463-.689.71-.444.506-.923 1-1.362 1.544-.224.267-.432.555-.651.827a18.388 18.388 0 0 0-1.223 1.705c-.189.291-.38.571-.552.864a6.596 6.596 0 0 0-.464.969c-.137.354-.257.73-.381 1.102a34.48 34.48 0 0 0-.622 2.315c-.091.384-.182.731-.271 1.06-.09.329-.179.632-.269.898a9.995 9.995 0 0 1-.11.304l-.241.143c-.266.157-.526.316-.797.471l-.838.449-.835.448-.417.224-.208.111-.062.029.044-.047c.699-.898 1.324-1.994 1.669-3.051.322-1.061.459-2.08.494-2.911a12.86 12.86 0 0 0 0-1.113 5.98 5.98 0 0 0-.073-.735c-.537.342-1.053.644-1.57 1.01a16.17 16.17 0 0 0-.772.579c-.296.213-.633.446-.942.682-.314.236-.623.48-.926.732l-.226.19-.112.095-.014.013-.003.003-.001.002c.244-.131.067-.035.121-.064l-.005.004-.022.02-.044.039c-.117.104-.233.209-.348.318-.452.446-.908.875-1.328 1.345a7.014 7.014 0 0 0-.622.781c-.101.146-.2.299-.298.459-.1.155-.202.311-.301.475-.2.323-.395.668-.59 1.01l-.588.998c-.423.716-.833 1.367-1.189 1.826a45.69 45.69 0 0 1-3.676.63 8.43 8.43 0 0 0 2.337-2.208 10.317 10.317 0 0 0 1.357-2.594 8.004 8.004 0 0 0 .426-1.766c-.276.059-.547.143-.84.213-.292.072-.587.156-.884.25-.306.084-.617.178-.927.281-.31.105-.64.202-.959.318-1.294.449-2.664.994-3.932 1.665-1.261.669-2.582 1.989-3.66 3.173-.541.59-1.021 1.145-1.42 1.564l-.003.002c-1.806.218-3.568.508-5.24.92a29.576 29.576 0 0 0-3.546 1.108 29.576 29.576 0 0 0-3.546-1.108c-1.672-.412-3.434-.702-5.24-.92-.001 0-.001-.002-.003-.002-.399-.42-.879-.975-1.42-1.564-1.078-1.184-2.4-2.504-3.66-3.173-1.268-.671-2.638-1.216-3.932-1.665-.319-.116-.649-.213-.959-.318-.31-.104-.62-.197-.927-.281a14.374 14.374 0 0 0-.883-.25c-.293-.07-.564-.154-.841-.213.033.328.148.98.427 1.766.28.781.714 1.717 1.357 2.594a8.412 8.412 0 0 0 2.336 2.208 45.615 45.615 0 0 1-3.676-.63c-.355-.459-.766-1.11-1.189-1.826l-.588-.998c-.196-.342-.39-.687-.591-1.01-.099-.164-.201-.319-.301-.475-.098-.16-.198-.313-.298-.459a7.132 7.132 0 0 0-.622-.781c-.42-.47-.876-.898-1.328-1.345-.114-.109-.23-.215-.348-.318l-.044-.039-.022-.02-.005-.004.121.064-.001-.002-.003-.003-.015-.013-.111-.095-.225-.19a23.976 23.976 0 0 0-.926-.732c-.308-.235-.645-.469-.941-.682a16.17 16.17 0 0 0-.772-.579c-.518-.366-1.034-.668-1.571-1.01-.03.167-.058.418-.072.735-.015.317-.018.704-.001 1.113.035.831.172 1.851.494 2.911.345 1.057.97 2.152 1.669 3.051l.043.047-.061-.029-.208-.111-.417-.224-.836-.448-.838-.449c-.271-.154-.531-.313-.797-.471l-.241-.143a7.308 7.308 0 0 1-.11-.304 16.43 16.43 0 0 1-.269-.898 28.73 28.73 0 0 1-.271-1.06c-.184-.757-.382-1.562-.622-2.315-.124-.371-.244-.748-.381-1.102a6.596 6.596 0 0 0-.464-.969c-.172-.293-.363-.573-.552-.864a17.881 17.881 0 0 0-1.223-1.705c-.22-.272-.427-.56-.651-.827-.44-.544-.918-1.038-1.362-1.544a17.916 17.916 0 0 0-.689-.71c-.232-.226-.467-.439-.685-.658a6.075 6.075 0 0 0-.229.703 12.39 12.39 0 0 0-.324 4.068c.059.542.159 1.1.312 1.656.152.559.354 1.116.643 1.621.055.1.115.199.175.298-.249-.197-.497-.394-.748-.589-.767-.668-1.547-1.32-2.291-2.008-.113-.597-.151-1.517-.197-2.522-.035-1.565-.088-3.297-.495-4.599a15.065 15.065 0 0 0-.357-.962 17.742 17.742 0 0 0-.834-1.933c-.16-.312-.302-.64-.466-.95-.319-.627-.681-1.217-1.016-1.809a18.22 18.22 0 0 0-.531-.846c-.184-.271-.366-.534-.538-.795-.393.568-1.256 2.354-1.525 4.567a10.713 10.713 0 0 0-.043 1.688c.016.288.045.579.089.87.043.29.116.569.198.851.062.21.137.418.218.624-.024-.03-.051-.06-.075-.091-.793-.93-1.498-1.918-2.226-2.873l-.233-.337c-.019-.598.148-1.591.33-2.692.142-.767.291-1.587.38-2.377.022-.197.04-.394.054-.586.017-.195.033-.39.04-.58.016-.38.008-.744-.035-1.083-.04-.341-.099-.68-.16-1.025-.054-.349-.12-.699-.196-1.047a17.63 17.63 0 0 0-.257-1.037c-.093-.345-.179-.697-.281-1.038-.2-.687-.444-1.348-.669-2.003a19.443 19.443 0 0 0-.373-.947l-.391-.898c-.485.492-1.654 2.108-2.329 4.239a10.942 10.942 0 0 0-.361 1.656 7.37 7.37 0 0 0 .114 2.759 68.716 68.716 0 0 1-1.949-3.912c.038-.568.42-1.604.841-2.773.555-1.468 1.155-3.12 1.239-4.513.126-2.776-.336-5.906-1.047-8.407-.275.209-.755.67-1.3 1.333-.539.661-1.157 1.532-1.64 2.529-.24.498-.454 1.031-.623 1.587a9.661 9.661 0 0 0-.218.852 8.152 8.152 0 0 0-.114.872c-.037.486-.027.982.034 1.476a88.246 88.246 0 0 1-2.084-7.027l-.501-2.123a28.586 28.586 0 0 1-.222-1.013c.026.085.049.17.079.255 0 0 .068.354.196.879l.451 1.928.504 1.915.166.63.07.238c-.123-.425.539-1.583 1.272-2.941.37-.681.786-1.421 1.121-2.156.17-.368.32-.734.448-1.096a6.81 6.81 0 0 0 .305-1.068c.515-2.766.445-5.985.058-8.598-.291.174-.831.579-1.456 1.176a12.97 12.97 0 0 0-1.941 2.318c-.305.466-.589.969-.831 1.501a8.392 8.392 0 0 0-.553 1.668c-.123.578-.203 1.179-.166 1.782.007.129.019.259.034.389-.223-1.063-.374-1.996-.517-2.764-.079-.42-.141-.792-.188-1.117l-.126-.82-.018-.12c.267-1.117.621-2.357.963-3.592.296-1.076.598-2.153.788-3.155.209-1.005.32-1.938.266-2.738-.04-.802-.321-1.682-.714-2.561-.376-.881-.87-1.761-1.36-2.55-.95-1.577-1.892-2.788-1.892-2.788s-.921 1.203-1.833 2.866c-.44.831-.878 1.776-1.198 2.73-.303.953-.485 1.915-.441 2.766.057.85.317 1.819.68 2.83.389 1.01.873 2.063 1.409 3.085.62 1.182 1.283 2.317 1.857 3.331l.016.111.114.832c.042.329.098.708.171 1.134.132.778.269 1.721.476 2.796a6.707 6.707 0 0 0-.112-.356 8.756 8.756 0 0 0-.776-1.649c-.312-.517-.689-1-1.075-1.453a13.637 13.637 0 0 0-1.234-1.261 19.601 19.601 0 0 0-2.499-1.893c-.755-.48-1.382-.796-1.709-.918.206 2.978 1.222 6.579 2.842 9.237.201.332.442.657.711.972.274.314.582.617.9.907.641.58 1.325 1.111 1.985 1.576 1.328.929 2.444 1.611 2.569 2.045l-.068-.243-.162-.644c-.133-.534-.31-1.245-.489-1.957l-.435-1.969a21.601 21.601 0 0 1-.188-.896c-.005-.086-.016-.17-.024-.255.061.326.126.661.203 1.004l.474 2.165a90.607 90.607 0 0 0 2.01 7.215 7.977 7.977 0 0 0-.843-1.247 10.582 10.582 0 0 0-.611-.676 11.187 11.187 0 0 0-.645-.626c-.446-.4-.919-.764-1.398-1.094a19.549 19.549 0 0 0-2.72-1.578c-.813-.386-1.482-.627-1.815-.71.312 1.481.807 3.1 1.51 4.648.333.777.742 1.532 1.17 2.248.215.358.435.706.663 1.042.238.333.483.653.732.957.979 1.227 2.655 2.194 4.073 2.925 1.209.599 2.252 1.041 2.677 1.411a71.093 71.093 0 0 0 1.916 4.008 8.357 8.357 0 0 0-.741-.729 13.655 13.655 0 0 0-1.454-1.085 14.326 14.326 0 0 0-1.563-.861c-2.066-1.023-4.162-1.522-4.844-1.594.124.363.275.729.441 1.097.164.369.34.742.526 1.116.36.751.811 1.489 1.28 2.211.237.359.473.718.734 1.06a25.034 25.034 0 0 0 1.644 1.927c.29.293.593.569.893.83.301.26.638.5.996.721.18.11.363.216.555.315.194.098.393.191.593.279a21.81 21.81 0 0 0 2.404.871c1.15.327 2.145.552 2.699.795l.202.303 1.1 1.514c.361.513.757 1.002 1.151 1.498.037.05.078.098.116.146a8.746 8.746 0 0 0-.582-.366c-.264-.153-.543-.286-.814-.419a11.479 11.479 0 0 0-.827-.366 14.426 14.426 0 0 0-1.703-.552c-2.227-.623-4.391-.743-5.076-.695.191.34.409.677.645 1.013.233.337.478.676.733 1.014.499.683 1.093 1.328 1.697 1.956.307.31.605.625.935.911.328.287.66.565.995.83.335.266.673.518 1.011.758.35.229.701.442 1.05.639 1.381.809 3.322 1.084 4.916 1.226 1.083.072 2.021.091 2.63.184.745.709 1.523 1.387 2.294 2.076.277.225.553.451.829.68a7.045 7.045 0 0 0-.346-.118 14.874 14.874 0 0 0-1.769-.419c-.595-.1-1.195-.155-1.784-.181a21.287 21.287 0 0 0-3.178.062c-.455.044-.861.101-1.191.154a6.317 6.317 0 0 0-.753.156c.258.297.548.58.848.861.3.283.613.565.935.844.634.569 1.355 1.073 2.081 1.563.366.24.728.484 1.11.695.382.211.768.411 1.152.6a22 22 0 0 0 1.152.523c.385.156.779.283 1.161.402.383.117.791.201 1.21.257.42.058.85.088 1.294.079a21.51 21.51 0 0 0 2.558-.195c.394-.048.788-.113 1.146-.171.358-.058.684-.11.97-.149.118-.016.228-.028.331-.038l.18.11.836.513.83.463.827.461.413.231.206.114.103.058.091.046-.074-.008c-1.241-.174-2.391-.013-3.534.181a21.903 21.903 0 0 0-3.133.718c-.45.137-.825.269-1.135.391-.309.12-.55.229-.703.314.616.459 1.381.902 2.162 1.324.392.211.792.416 1.199.613.377.17.728.302 1.101.441.369.137.741.266 1.116.384l.281.087.141.043.018.005.004.001.002.001.125.066.011.003.042.012.085.025c.226.063.452.125.676.182.892.242 1.791.372 2.639.445.425.035.871.007 1.315-.04.222-.024.445-.058.667-.097.222-.043.445-.099.665-.156.44-.118.871-.252 1.286-.404.416-.161.815-.332 1.19-.501.829-.378 1.541-.763 2.088-1.018 1.306.304 2.603.538 3.877.729-1.115.288-2.187.766-3.182 1.281a28.855 28.855 0 0 0-2.775 1.669c-.769.522-1.345.959-1.601 1.213.4.123.817.257 1.24.353.423.099.858.19 1.299.272.437.07.88.13 1.328.182.448.052.888.07 1.334.093 1.774.065 3.481-.107 4.956-.479 1.483-.373 2.971-1.423 4.235-2.342.631-.463 1.204-.893 1.676-1.194l.008-.005c1.698.231 3.3.52 4.785.908.149.039.292.082.437.122-1.442.844-2.584 1.696-3.542 2.45l-.797.639-.695.611-.638.558-.569.548-.525.502-.247.236c-.071.072-.14.145-.208.213l-.758.778c-.553.57 1.095 1.379 2.912 1.878.454.124.919.229 1.363.307.443.078.872.115 1.222.178.71.098 1.183.074 1.226-.217.027-.245.106-.52.201-.824.097-.305.214-.646.368-1.008.163-.349.358-.729.591-1.139.242-.395.532-.806.867-1.246a13.022 13.022 0 0 1 2.84-2.563c.102-.067.21-.134.317-.2.107.066.215.133.317.2a12.974 12.974 0 0 1 2.84 2.563c.334.441.625.852.867 1.246.233.41.427.79.59 1.139.155.361.272.703.368 1.008.096.305.175.579.202.824.042.291.515.314 1.226.217.35-.063.778-.1 1.222-.178a15.33 15.33 0 0 0 1.363-.307c1.817-.499 3.465-1.308 2.912-1.878l-.758-.778c-.068-.068-.138-.141-.208-.213l-.247-.236-.525-.502-.57-.548-.638-.558-.695-.611-.797-.639c-.958-.754-2.101-1.606-3.542-2.45.145-.04.288-.083.437-.122 1.485-.389 3.087-.677 4.784-.908a.022.022 0 0 1 .008.005c.472.302 1.046.731 1.676 1.194 1.263.919 2.752 1.969 4.235 2.342 1.475.372 3.183.545 4.956.479.446-.022.886-.041 1.334-.093.448-.052.891-.111 1.329-.182.441-.082.876-.174 1.299-.272.423-.096.84-.229 1.24-.353-.256-.254-.833-.69-1.602-1.213a28.855 28.855 0 0 0-2.775-1.669c-.995-.516-2.067-.993-3.182-1.281a48.836 48.836 0 0 0 3.878-.729c.547.255 1.259.64 2.088 1.018.375.169.774.34 1.19.501.415.152.846.286 1.286.404.22.058.443.113.666.156.221.039.444.072.666.097.444.047.89.075 1.315.04a15.019 15.019 0 0 0 2.64-.445c.224-.057.45-.118.675-.182l.085-.025.042-.012.01-.003c.056-.03-.12.064.126-.066l.002-.001.004-.001.018-.005.141-.043.28-.087c.375-.118.747-.247 1.116-.384.372-.14.724-.271 1.101-.441.407-.197.808-.402 1.2-.613.781-.422 1.547-.865 2.162-1.324a6.101 6.101 0 0 0-.703-.314 14.985 14.985 0 0 0-1.134-.391 22.04 22.04 0 0 0-3.133-.718c-1.143-.193-2.292-.354-3.534-.181l-.074.008.09-.046.103-.058.206-.114.413-.231.827-.461.829-.463.836-.513.179-.11c.105.01.214.022.332.038.287.039.613.092.97.149.358.058.751.123 1.145.171.798.102 1.678.189 2.559.195a8.19 8.19 0 0 0 1.293-.079c.42-.056.828-.14 1.211-.257.382-.119.775-.246 1.16-.402.383-.16.768-.336 1.152-.523.385-.188.77-.389 1.152-.6.382-.211.744-.455 1.11-.695.725-.49 1.446-.994 2.081-1.563.322-.278.635-.561.934-.844.301-.281.59-.564.848-.861a6.317 6.317 0 0 0-.753-.156c-.33-.054-.737-.11-1.191-.154a21.3 21.3 0 0 0-3.179-.062c-.589.025-1.189.081-1.784.181-.594.1-1.18.244-1.77.419a7.424 7.424 0 0 0-.346.118c.276-.229.552-.455.829-.68.77-.689 1.549-1.367 2.293-2.076.608-.093 1.547-.111 2.63-.184 1.593-.143 3.535-.417 4.915-1.226.349-.196.701-.41 1.051-.639.338-.239.676-.492 1.011-.758.335-.265.668-.543.996-.83.33-.286.628-.601.935-.911.604-.629 1.198-1.274 1.697-1.956.255-.338.5-.677.734-1.014.236-.336.454-.673.644-1.013-.684-.048-2.849.073-5.076.695-.568.148-1.144.33-1.703.552-.28.111-.556.232-.826.366-.271.133-.55.266-.814.419-.2.113-.393.237-.582.366l.116-.146c.394-.496.79-.985 1.151-1.498l1.099-1.514c.067-.102.135-.202.203-.303.555-.243 1.55-.468 2.699-.795a21.493 21.493 0 0 0 2.405-.871c.2-.088.399-.181.594-.279.191-.1.374-.205.554-.315.358-.22.695-.461.996-.721.299-.261.603-.537.893-.83.283-.297.563-.608.838-.93.275-.322.544-.655.807-.997.26-.342.495-.701.733-1.06.47-.722.92-1.459 1.28-2.211.186-.374.362-.747.526-1.116.166-.368.317-.734.441-1.097-.681.072-2.777.571-4.844 1.594a14.42 14.42 0 0 0-1.563.861c-.505.324-.985.689-1.453 1.085a8.498 8.498 0 0 0-.741.729 70.758 70.758 0 0 0 1.917-4.008c.425-.37 1.468-.812 2.677-1.411 1.419-.731 3.095-1.698 4.074-2.925.248-.304.493-.624.731-.957.228-.335.449-.684.663-1.042.428-.716.837-1.471 1.17-2.248a22.785 22.785 0 0 0 1.511-4.648c-.332.084-1.003.325-1.815.71-.814.384-1.76.916-2.715 1.577zm-.5-5.123c.309-.799.653-1.568.93-2.039.274-.471.715-.968 1.157-1.402.438-.434.895-.803 1.233-1.002 0 0 .045.4-.013.987a5.13 5.13 0 0 1-.683 2.089c-.493.842-1.109 1.429-1.676 1.968-.572.538-1.08 1.031-1.473 1.672.015-.629.222-1.473.525-2.273zm-.493-15.147c.073-1.041.466-1.868.807-2.444.348-.575.682-.893.682-.893s.299.35.586.968c.292.619.53 1.508.457 2.572-.035.532-.163 1.132-.331 1.75a23.372 23.372 0 0 1-.586 1.857c-.45 1.205-.882 2.283-1.061 2.861.017-.601-.181-1.762-.323-3.016-.075-.628-.166-1.284-.208-1.91a12.902 12.902 0 0 1-.023-1.745zm-2.315 14.518c-.076.825-.217 1.664-.523 2.2-.024-.721-.307-1.383-.587-2.08-.286-.699-.586-1.437-.749-2.345-.14-.788-.012-1.501.114-2.032.133-.528.305-.863.305-.863.255.283.568.757.839 1.295.268.537.477 1.133.559 1.656.077.521.123 1.345.042 2.169zM10.277 22.344c.081-.523.29-1.119.558-1.656.272-.539.584-1.013.839-1.295 0 0 .172.334.305.863.126.53.254 1.244.114 2.032-.163.908-.463 1.646-.749 2.345-.281.697-.564 1.359-.587 2.08-.306-.536-.447-1.375-.523-2.2a9.439 9.439 0 0 1 .043-2.169zm-2.325 5.071c-.392-.641-.9-1.134-1.473-1.672-.567-.539-1.182-1.125-1.676-1.968a5.115 5.115 0 0 1-.683-2.089c-.059-.587-.013-.987-.013-.987.337.199.794.568 1.233 1.002.441.434.882.931 1.156 1.402.277.471.622 1.24.93 2.039.303.8.51 1.644.526 2.273zm-1.647-13.61a23.372 23.372 0 0 1-.586-1.857c-.167-.618-.296-1.218-.331-1.75a5.204 5.204 0 0 1 .457-2.572c.285-.619.585-.968.585-.968s.334.318.682.893c.341.576.735 1.403.807 2.444.034.521.023 1.119-.022 1.746-.043.626-.133 1.282-.208 1.91-.142 1.254-.341 2.415-.324 3.016-.179-.58-.61-1.658-1.06-2.862zm8.172 17.289s.216.304.421.803c.104.25.199.55.273.883.078.332.127.701.116 1.096a7.357 7.357 0 0 1-.152 1.277c-.078.399-.165.771-.255 1.137-.175.727-.35 1.419-.275 2.138-.374-.484-.644-1.289-.842-2.088a8.328 8.328 0 0 1-.205-1.178 8.84 8.84 0 0 1-.06-.968c-.012-1.048.559-2.482.979-3.1zm-4.245 7.017c-.32-.226-.66-.46-.988-.738a7.706 7.706 0 0 1-.96-.979 5.15 5.15 0 0 1-.643-1.027 5.548 5.548 0 0 1-.33-.964c-.143-.578-.154-.983-.154-.983.734.308 2.004 1.217 2.705 2.065.172.214.374.499.581.825.207.326.42.693.634 1.066.422.748.759 1.551.862 2.175-.475-.578-1.058-.99-1.707-1.44zm8.317 5.48c.097-.588.254-1.127.412-1.468a4.777 4.777 0 0 1 .957 1.528c.134.309.243.66.3 1.048.066.446.079.869.068 1.275-.01.406-.028.784-.054 1.158-.042.742-.093 1.455.112 2.145-.457-.405-.864-1.146-1.202-1.895a8.039 8.039 0 0 1-.406-1.119 8.536 8.536 0 0 1-.226-.938 4.573 4.573 0 0 1-.056-.837c.01-.295.046-.603.095-.897zm-2.563 6.171c-.356-.167-.737-.337-1.107-.556a7.67 7.67 0 0 1-1.121-.805 5.144 5.144 0 0 1-.817-.908 5.995 5.995 0 0 1-.49-.904 5.288 5.288 0 0 1-.323-.951c.385.093.938.312 1.492.597.278.142.553.303.813.471.267.166.514.342.72.523.207.182.457.429.719.714.262.286.533.613.813.941.552.662 1.027 1.394 1.245 1.99-.575-.482-1.223-.784-1.944-1.112zm9.317 2.287s.307.201.67.584c.183.191.374.433.56.711.191.274.367.594.499.96.152.422.248.832.318 1.231.075.395.131.77.183 1.14.11.733.201 1.444.547 2.071-.533-.297-1.079-.941-1.562-1.602a8.229 8.229 0 0 1-.34-.503 12.194 12.194 0 0 1-.283-.506 8.505 8.505 0 0 1-.407-.872 4.618 4.618 0 0 1-.221-.806 6.35 6.35 0 0 1-.084-.895c-.021-.592.03-1.149.12-1.513zm-1.389 8.074c-.385-.09-.79-.182-1.202-.318a7.61 7.61 0 0 1-1.263-.566 5.222 5.222 0 0 1-.988-.731 5.648 5.648 0 0 1-.665-.793 5.35 5.35 0 0 1-.507-.875c.397.016.984.124 1.583.296.302.085.601.191.894.302a5.4 5.4 0 0 1 .812.371c.24.137.534.329.849.557.157.114.32.237.484.366.165.128.34.255.507.391.677.533 1.29 1.156 1.631 1.691-.667-.351-1.36-.517-2.135-.691zm9.585.277s.342.129.778.426c.218.148.46.339.696.577.244.229.486.501.693.83.938 1.532 1.054 2.992 1.966 4.123-.57-.197-1.254-.69-1.866-1.235a9.582 9.582 0 0 1-1.406-1.619 4.562 4.562 0 0 1-.389-.737 7.434 7.434 0 0 1-.27-.859c-.145-.578-.214-1.131-.202-1.506zm-2.239 7.848a5.105 5.105 0 0 1-1.122-.502 6.184 6.184 0 0 1-.818-.636c-.445-.41-.683-.746-.683-.746.392-.068.988-.089 1.612-.049.312.02.631.055.935.107.311.043.61.104.874.186.532.158 1.305.506 2.074.892.774.379 1.518.836 1.951 1.307-1.416-.449-2.92.047-4.823-.559zm12.104-1.351l-.001-.005-.001-.009.005.001.002.001h.002l-.078-.041c.005.002.02.011.005.002l.007.001c.01.002.025.005.045.007a3.942 3.942 0 0 1 .743.211c.454.191 1.049.459 1.564.998.306.289.563.598.796.911.23.319.45.61.66.912.419.604.849 1.134 1.444 1.522a3.952 3.952 0 0 1-1.007-.174c-.364-.104-.734-.275-1.096-.449a7.39 7.39 0 0 1-.997-.592 5.253 5.253 0 0 1-.735-.578 4.284 4.284 0 0 1-.526-.625 5.59 5.59 0 0 1-.235-.361 6.44 6.44 0 0 1-.51-1.149 4.467 4.467 0 0 1-.1-.34l-.036-.154a2.268 2.268 0 0 1-.014-.072l-.006-.035-.003-.017v-.003l.073.039v-.001zm2.218 7.754c-.388.097-.803.215-1.243.271a7.907 7.907 0 0 1-1.443.071c-.901-.075-1.713-.375-2.26-.705a6.757 6.757 0 0 1-.647-.42 4.845 4.845 0 0 1-.171-.133l-.044-.036-.007-.006-.073-.039v-.001l-.001-.001-.002-.002a.017.017 0 0 1-.003-.004l.008-.003.004-.002c.146.077.041.021.074.038h.002l.019-.008.038-.014.079-.026.172-.053c.12-.035.251-.068.389-.101a11.321 11.321 0 0 1 1.383-.225c.164-.021.327-.039.487-.052.32-.025.63-.031.91-.009.278.029.64.06 1.033.115.395.053.82.142 1.253.214.432.077.858.19 1.252.296.394.108.75.238 1.033.396-.757.01-1.464.246-2.242.439zm8.665-4.656a4.86 4.86 0 0 1 .651-.01c.266.015.58.05.919.125.338.077.691.199 1.056.381 1.662.84 2.502 2.119 3.864 2.703-1.247.16-3.415-.482-4.364-.949-.474-.235-.982-.622-1.409-1.038-.426-.419-.78-.854-.966-1.184 0 0 .09-.014.249-.028zm1.832 7.917a4.573 4.573 0 0 1-1.178.13 5.188 5.188 0 0 1-1.005-.107 6.002 6.002 0 0 1-.696-.184 2.865 2.865 0 0 1-.259-.098c.296-.26.789-.592 1.338-.883.549-.293 1.147-.56 1.677-.68 1.056-.244 3.308-.455 4.454-.016-1.431.265-2.463 1.374-4.331 1.838zm28.63-7.421a4.697 4.697 0 0 1 1.056-.381c.339-.075.653-.11.919-.125a4.69 4.69 0 0 1 .651.01c.159.014.249.028.249.028-.186.329-.54.765-.966 1.184-.427.416-.936.803-1.409 1.038-.95.467-3.118 1.109-4.364.949 1.363-.584 2.202-1.863 3.864-2.703zm3.931 7.162s-.094.043-.259.098a5.947 5.947 0 0 1-.696.184 5.094 5.094 0 0 1-1.005.107 4.573 4.573 0 0 1-1.178-.13c-1.867-.464-2.9-1.573-4.331-1.837 1.146-.44 3.398-.229 4.454.016.53.12 1.129.387 1.677.68.549.291 1.042.623 1.338.882zm5.83-7.766c.209-.302.429-.593.659-.912.233-.313.49-.622.796-.911.515-.539 1.109-.807 1.564-.998.229-.09.431-.145.574-.177.071-.017.129-.027.168-.034a.396.396 0 0 0 .045-.007l.007-.001c-.016.009 0 0 .005-.002l-.078.041h.003l.002-.001.004-.001-.002.009v.007l.073-.039v.003l-.003.017-.006.035a2.268 2.268 0 0 1-.05.226c-.027.107-.06.221-.1.34a6.51 6.51 0 0 1-.51 1.149 5.59 5.59 0 0 1-.235.361 4.351 4.351 0 0 1-.527.625 5.124 5.124 0 0 1-.735.578 7.328 7.328 0 0 1-.997.592c-.362.174-.732.346-1.096.449a3.99 3.99 0 0 1-1.007.174c.596-.389 1.027-.919 1.446-1.523zm6.638 3.592c.139.032.27.065.39.101l.172.053c.027.01.054.019.079.026l.038.014.019.008h.002l.073-.038h.001l.004.002.008.003-.003.004-.001.002-.001.001-.001.001-.074.039-.007.006-.044.036a6.757 6.757 0 0 1-.819.553c-.547.33-1.359.63-2.26.705a8.09 8.09 0 0 1-1.443-.071c-.44-.057-.854-.175-1.243-.271-.778-.193-1.485-.43-2.242-.436a4.643 4.643 0 0 1 1.032-.396c.395-.105.82-.219 1.252-.296.433-.072.858-.161 1.252-.214.394-.056.755-.086 1.033-.115.281-.022.59-.017.911.009.161.013.323.03.487.052.161.016.322.035.48.057.318.043.627.101.905.165zm4.809-11.246c.207-.329.449-.602.693-.83.235-.238.477-.429.695-.577.436-.297.778-.426.778-.426.011.375-.058.928-.202 1.505a7.434 7.434 0 0 1-.27.859 4.52 4.52 0 0 1-.389.737 9.582 9.582 0 0 1-1.406 1.619c-.612.545-1.295 1.038-1.865 1.235.912-1.129 1.028-2.589 1.966-4.122zm5.415 4.082c.623-.04 1.221-.02 1.612.049 0 0-.238.336-.683.746a6.104 6.104 0 0 1-.817.636 5.105 5.105 0 0 1-1.122.502c-1.903.605-3.407.11-4.824.559.433-.471 1.176-.928 1.95-1.307.77-.386 1.543-.733 2.075-.892.264-.082.562-.143.874-.186.304-.052.622-.087.935-.107zm2.719-9.639c.051-.37.108-.745.183-1.14.069-.399.165-.809.317-1.231.132-.367.308-.686.499-.96.185-.279.377-.521.56-.711.363-.384.67-.584.67-.584.091.364.141.921.122 1.516a6.351 6.351 0 0 1-.085.895 4.643 4.643 0 0 1-.221.806 8.296 8.296 0 0 1-.407.872c-.087.164-.182.334-.283.506-.103.17-.221.336-.34.503-.484.661-1.029 1.305-1.562 1.602.345-.63.437-1.341.547-2.074zm5.765.761c.294-.11.592-.217.894-.302.6-.172 1.186-.28 1.583-.296 0 0-.16.378-.507.875-.175.247-.39.526-.664.793a5.16 5.16 0 0 1-.987.731 7.564 7.564 0 0 1-1.263.566c-.412.137-.818.229-1.203.318-.776.174-1.468.34-2.136.689.341-.535.953-1.158 1.632-1.691.167-.136.342-.263.507-.391.163-.129.326-.252.483-.366.314-.228.609-.42.849-.557.239-.137.517-.26.812-.369zm1.533-10.304a27.183 27.183 0 0 1-.054-1.158c-.011-.406.002-.83.068-1.275.057-.388.167-.738.3-1.048.124-.316.27-.591.411-.817.283-.452.547-.711.547-.711.159.341.316.879.413 1.468.048.294.084.602.094.898.003.293-.013.58-.058.837-.043.257-.12.582-.225.938a8.169 8.169 0 0 1-.406 1.119c-.338.748-.745 1.49-1.202 1.895.206-.691.155-1.404.112-2.146zm5.8-.427c.26-.168.536-.329.813-.471.554-.285 1.106-.504 1.492-.597 0 0-.082.4-.323.951-.12.275-.28.587-.49.904a5.12 5.12 0 0 1-.818.908 7.664 7.664 0 0 1-1.12.805c-.37.219-.751.389-1.108.556-.721.328-1.369.63-1.945 1.113.218-.596.694-1.328 1.245-1.99.28-.329.552-.655.813-.941.262-.286.512-.532.719-.714.209-.183.455-.359.722-.524zm-.703-11.553a7.36 7.36 0 0 1-.151-1.277 4.268 4.268 0 0 1 .116-1.096c.074-.333.169-.633.273-.883.204-.499.421-.803.421-.803.42.618.991 2.051.979 3.099a8.61 8.61 0 0 1-.06.968c-.04.371-.102.778-.204 1.178-.199.8-.469 1.604-.843 2.088.076-.718-.1-1.411-.274-2.138a21.368 21.368 0 0 1-.257-1.136zm7.824-.75a5.465 5.465 0 0 1-.33.964 5.116 5.116 0 0 1-.642 1.027c-.312.383-.636.7-.96.979-.327.278-.667.512-.988.738-.648.45-1.231.861-1.707 1.44.103-.625.44-1.427.862-2.175.214-.373.427-.74.634-1.066.208-.326.409-.611.581-.825.702-.848 1.972-1.757 2.706-2.065-.001 0-.013.405-.156.983z"/></symbol><symbol viewBox="0 0 146.31 95.57" id="wreath4" xmlns="http://www.w3.org/2000/svg"><path d="M124.135 13.851l-.043 5.546c-.031 3.843 4.908 6.973 11.03 6.993 6.124.019 11.115-3.08 11.145-6.922l.045-5.546c.029-3.842-4.909-6.973-11.032-6.993-6.123-.02-11.114 3.079-11.145 6.922zm5.543-.539c.011-1.13 2.507-2.041 5.566-2.032 3.061.01 5.542.937 5.533 2.067l-.053 6.659c-.009 1.13-2.507 2.042-5.565 2.032-3.061-.01-5.543-.937-5.533-2.067l.052-6.659zM77.687 49.788l-8.839-.029c-6.123-.019-11.114 3.079-11.144 6.921-.03 3.843 4.908 6.973 11.033 6.993l8.837.028c6.123.018 11.114-3.081 11.145-6.923.031-3.84-4.909-6.972-11.032-6.99zm.859 3.478c1.8.005 3.253 1.572 3.238 3.491-.015 1.92-1.494 3.478-3.294 3.472l-10.613-.033c-1.799-.007-3.253-1.573-3.238-3.493.016-1.92 1.496-3.478 3.294-3.471l10.613.034z"/><path d="M139.557 11.147c0 3.626-8.709 3.604-8.709 0V2.71c0-3.613 8.709-3.618 8.709 0v8.437zm-21.293 20.302l-2.861 5.248c-1.984 3.635 1.104 7.591 6.898 8.835 5.794 1.244 12.099-.693 14.081-4.329l2.863-5.247c1.982-3.635-1.107-7.592-6.9-8.836-5.792-1.243-12.099.695-14.081 4.329zm5.528.599c.584-1.068 3.414-1.432 6.308-.81 2.894.621 4.776 1.997 4.192 3.067l-3.437 6.299c-.584 1.068-3.415 1.433-6.309.812-2.894-.622-4.775-1.999-4.192-3.067l3.438-6.301z"/><path d="M134.562 32.048c-1.843 3.437-10.087 1.673-8.254-1.744l4.291-7.995c1.837-3.425 10.093-1.685 8.253 1.743l-4.29 7.996zm-31.599 10.82l-8.099 2.223c-5.609 1.539-8.168 5.64-5.716 9.161 2.455 3.521 8.991 5.127 14.604 3.587l8.097-2.221c5.61-1.542 8.171-5.643 5.717-9.164-2.455-3.519-8.993-5.127-14.603-3.586zm3.033 2.96c1.649-.452 3.99.611 5.214 2.37 1.226 1.757.881 3.558-.77 4.012l-9.722 2.667c-1.65.452-3.991-.611-5.216-2.369-1.225-1.759-.881-3.558.768-4.011l9.726-2.669z"/><path d="M84.8 58.506c-5.283 1.469-8.78-3.536-3.531-4.997l12.292-3.418c5.267-1.465 8.801 3.53 3.531 4.996L84.8 58.506zm32.692-9.065c-4.215 2.481-10.149-1.519-5.96-3.985l9.805-5.773c4.201-2.473 10.164 1.51 5.96 3.985l-9.805 5.773zM11.03 6.956C4.907 6.977-.032 10.108-.001 13.95l.045 5.545c.031 3.843 5.02 6.941 11.145 6.921 6.123-.019 11.061-3.15 11.029-6.992l-.044-5.546c-.029-3.842-5.021-6.941-11.144-6.922zM16.685 20c.01 1.13-2.472 2.056-5.532 2.067-3.059.01-5.558-.903-5.567-2.032l-.054-6.659c-.009-1.13 2.474-2.057 5.534-2.066 3.057-.011 5.556.902 5.564 2.032L16.685 20z"/><path d="M6.753 11.175c0 3.626 8.709 3.604 8.709 0V2.739c0-3.614-8.709-3.618-8.709 0v8.436zm7.212 15.974c-5.794 1.246-8.883 5.201-6.901 8.836l2.863 5.247c1.983 3.636 8.287 5.574 14.082 4.33 5.793-1.245 8.881-5.2 6.897-8.836l-2.86-5.247c-1.982-3.637-8.29-5.574-14.081-4.33zm11.991 11.229c.582 1.068-1.298 2.444-4.192 3.066-2.895.621-5.726.257-6.309-.811l-3.437-6.301c-.584-1.068 1.297-2.445 4.193-3.066 2.894-.622 5.723-.258 6.306.81l3.439 6.302z"/><path d="M11.747 32.077c1.844 3.436 10.087 1.671 8.254-1.744l-4.29-7.996c-1.837-3.425-10.094-1.684-8.253 1.744l4.289 7.996zm16.998 14.405c-2.454 3.521.107 7.623 5.717 9.163l8.098 2.222c5.61 1.54 12.149-.065 14.602-3.587 2.453-3.52-.107-7.622-5.716-9.161l-8.1-2.223c-5.609-1.54-12.149.067-14.601 3.586zm21.294 2.042c1.648.453 1.994 2.253.769 4.013-1.225 1.759-3.567 2.822-5.217 2.369l-9.723-2.667c-1.65-.453-1.996-2.253-.77-4.012 1.226-1.759 3.566-2.822 5.217-2.369l9.724 2.666z"/><path d="M61.51 58.534c5.283 1.469 8.782-3.536 3.53-4.997l-12.291-3.418c-5.267-1.465-8.801 3.529-3.53 4.995l12.291 3.42zm-32.691-9.065c4.214 2.482 10.148-1.519 5.959-3.984l-9.806-5.773c-4.2-2.474-10.163 1.509-5.959 3.984l9.806 5.773zm56.093 31.803c-1.688-1.033-4.539-1.804-8.555-2.304l-3.964-.503c-1.891-.241-3.193-.532-3.91-.871-.719-.34-1.076-.812-1.076-1.42 0-.81.533-1.406 1.6-1.792 1.058-.381 2.706-.576 4.93-.576 1.683 0 3.46.142 5.349.426a47.52 47.52 0 0 1 5.805 1.26v-4.794a85.482 85.482 0 0 0-6.511-.846c-.633-.055-1.25-.087-1.871-.126v-2.643h-6.985v2.585c-3.037.206-5.466.781-7.275 1.726-2.326 1.215-3.48 2.949-3.48 5.204 0 1.805.834 3.235 2.503 4.296 1.669 1.062 4.308 1.836 7.92 2.322l3.602.501c2.196.302 3.655.65 4.395 1.031.728.384 1.099.931 1.099 1.637 0 .789-.546 1.402-1.623 1.821-1.075.428-2.639.64-4.662.64-2.003 0-4.08-.192-6.234-.585-2.149-.387-4.376-.965-6.69-1.736v4.932c2.314.534 4.618.941 6.922 1.212 1.175.142 2.347.244 3.523.308v2.596h6.985v-2.626c3.062-.236 5.474-.8 7.205-1.694 2.365-1.221 3.543-3.078 3.543-5.575-.001-1.904-.848-3.375-2.545-4.406zM73.214 68.21c1.163 0 2.107.592 2.107 1.321 0 .731-.944 1.322-2.107 1.322-1.163 0-2.106-.591-2.106-1.322 0-.729.943-1.321 2.106-1.321z"/><path d="M68.857 69.573c0 3.626 8.709 3.603 8.709 0v-8.437c0-3.615-8.709-3.618-8.709 0v8.437z"/></symbol><symbol viewBox="0 0 140.79 97.09" id="wreath5" xmlns="http://www.w3.org/2000/svg"><path d="M55.199 96.911c.37-.297.865-.637 1.529-1.088.334-.221.702-.469 1.123-.727.434-.24.912-.499 1.436-.773 1.038-.576 2.313-1.096 3.773-1.691.743-.264 1.537-.537 2.385-.815.85-.271 1.764-.513 2.727-.775 4.131-1.075 8.951-2.024 14.104-3.396 5.144-1.396 10.592-3.305 15.823-6.113.64-.354 1.282-.707 1.927-1.061.324-.171.643-.369.963-.564l.961-.584.964-.586c.321-.196.625-.414.938-.619.623-.42 1.252-.832 1.87-1.26a74.036 74.036 0 0 0 7.026-5.688 72.197 72.197 0 0 0 6.154-6.51c1.892-2.273 3.581-4.653 5.133-7.037 1.537-2.396 2.871-4.832 4.086-7.22l.854-1.798.42-.887.385-.892.758-1.754.681-1.738c1.784-4.584 2.999-8.848 3.861-12.457.854-3.613 1.358-6.573 1.694-8.619.164-1.023.264-1.822.344-2.362l.117-.824-.845-.114-.435 2.869c-.168.92-.352 2.052-.606 3.36l-.428 2.094c-.147.742-.347 1.519-.533 2.339a98.698 98.698 0 0 1-3.413 11.357c-.367 1.059-.822 2.115-1.254 3.209-.211.549-.469 1.085-.706 1.636-.245.547-.479 1.107-.742 1.66l-.809 1.668c-.138.279-.268.564-.414.843l-.444.836c-.299.559-.591 1.126-.901 1.689l-.975 1.682c-.317.57-.673 1.122-1.026 1.68-.357.555-.696 1.127-1.076 1.677l-1.143 1.659-.287.417-.305.406-.611.814c-.796 1.106-1.693 2.146-2.561 3.221l-1.379 1.553c-.234.256-.455.525-.699.773l-.729.75-.729.752-.365.376-.379.362c-.51.48-1.018.962-1.527 1.444-.514.479-1.057.925-1.584 1.389l-.797.69-.825.656c-2.171 1.785-4.511 3.364-6.862 4.847l-1.783 1.064c-.291.18-.598.348-.908.512l-.922.497-.918.495-.229.125-.114.061-.029.016c-.022.013-.001.002-.014.008l-.059.027-.463.223-1.845.884c-.308.142-.606.302-.921.43l-.933.39c-.62.26-1.238.519-1.853.775-.626.228-1.248.457-1.867.682-.619.225-1.23.458-1.854.644-4.951 1.62-9.795 2.653-14.206 3.627-4.915 1.08-9.104 1.979-12.733 3.038l-.678.185-.658.21-1.286.406c-.422.139-.841.248-1.248.402l-1.21.441c-1.642.561-2.987 1.166-4.329 1.703-1.094.448 3.304 3.312 4.413 2.399z"/><path d="M133.936 33.078c.119-.488-.109-1.65-.398-3.066a37.65 37.65 0 0 1-.418-2.267c-.112-.785-.219-1.591-.215-2.362-.012-3.091.304-6.83.697-9.876.309.361 1.168 1.729 1.75 3.744a16.374 16.374 0 0 1 .498 2.513 14.994 14.994 0 0 1-.001 2.903 13.509 13.509 0 0 1-.405 2.065l-.201.999-.505 2.185c-.175.797-.392 1.583-.544 2.175-.156.592-.258.987-.258.987zm.156.042c.119-.488.918-1.377 1.818-2.543.445-.583.924-1.233 1.374-1.926.45-.693.835-1.435 1.146-2.185 1.217-3.008 2.071-6.932 2.357-10.164-.404.302-1.528 1.516-2.641 3.338a18.158 18.158 0 0 0-1.202 2.299 15.932 15.932 0 0 0-.971 2.752 15.35 15.35 0 0 0-.411 2.066l-.196 1.001a751.3 751.3 0 0 0-.49 2.191c-.17.799-.382 1.588-.531 2.182l-.253.989zm-4.847 13.361c.101-.23.136-.642.141-1.175.001-.267.001-.561-.015-.883l-.059-1.029c-.045-.723-.068-1.5-.081-2.293-.017-.796.009-1.599.118-2.357.41-3.048 1.189-6.69 1.939-9.647.135.198.389.664.627 1.332.24.669.49 1.549.662 2.586a15.03 15.03 0 0 1 .113 3.483c-.068.629-.178 1.28-.338 1.941-.082.33-.172.665-.285.997-.117.331-.249.663-.396.994l-.349.958c-.197.579-.506 1.333-.81 2.091a47.805 47.805 0 0 1-.858 2.07c-.244.559-.409.932-.409.932zm.149.066c.101-.23.378-.536.77-.91l.659-.613.753-.721c.525-.513 1.113-1.083 1.648-1.71a15.039 15.039 0 0 0 1.45-2.012 31.92 31.92 0 0 0 2.185-4.78c.158-.426.313-.854.455-1.283.135-.43.264-.86.387-1.286.244-.851.473-1.684.629-2.485-.217.127-.627.463-1.172.972a18.155 18.155 0 0 0-1.854 2.033 18.918 18.918 0 0 0-1.967 2.944 15.647 15.647 0 0 0-1.224 2.755c-.119.33-.229.67-.326 1.02l-.342.962c-.195.58-.499 1.338-.798 2.098-.297.761-.594 1.522-.847 2.08l-.406.936zm-7.029 12.346c.279-.417.461-1.582.622-3.021.044-.357.093-.729.148-1.108l.088-.572.082-.587c.121-.784.283-1.564.521-2.286.215-.737.467-1.5.75-2.271.282-.771.546-1.575.855-2.355.315-.777.586-1.578.898-2.334.309-.759.609-1.499.895-2.199.107.215.277.704.43 1.404.149.699.247 1.596.259 2.644.002.262-.002.532-.015.811a15.842 15.842 0 0 1-.418 2.642c-.151.619-.386 1.232-.651 1.859-.27.625-.587 1.254-1.002 1.85l-.51.882-.523.904-.639 1.013c-.44.686-.856 1.388-1.215 1.884l-.575.84z"/><path d="M122.499 58.985c.279-.417 1.339-.984 2.553-1.815.308-.205.629-.424.956-.656l.493-.358c.159-.126.318-.255.477-.388a15.07 15.07 0 0 0 1.786-1.741 38.482 38.482 0 0 0 1.528-2.072c.507-.734.959-1.527 1.419-2.319.468-.791.849-1.621 1.235-2.426.186-.406.38-.803.54-1.203.16-.4.314-.794.458-1.179-.23.096-.702.366-1.302.796a20.453 20.453 0 0 0-2.152 1.735c-.195.182-.393.374-.59.575-.204.198-.411.404-.615.62-.41.432-.814.9-1.201 1.408-.384.509-.789 1.037-1.145 1.618a22.872 22.872 0 0 0-1.008 1.85l-.505.887-.519.909-.633 1.019c-.436.691-.849 1.396-1.204 1.896l-.571.844zm-9.307 10.725c.182-.173.373-.539.581-1.027.212-.486.407-1.126.644-1.802.484-1.345.977-2.968 1.721-4.284 1.463-2.668 3.391-5.783 5.016-8.308.132.456.344 2.047-.047 4.089-.168 1.038-.537 2.148-1.069 3.305-.257.585-.612 1.136-.995 1.699-.391.555-.814 1.12-1.343 1.619l-.677.762-.693.781c-.256.283-.547.57-.828.865l-.832.86c-.264.276-.512.532-.738.738l-.74.703z"/><path d="M113.303 69.827c.182-.174.557-.348 1.064-.543.508-.193 1.116-.44 1.807-.713 1.393-.535 2.975-1.324 4.274-2.35a38.867 38.867 0 0 0 1.913-1.743c.634-.632 1.237-1.325 1.843-2.022 1.175-1.417 2.256-2.921 3.09-4.351-.494.107-2.033.748-3.865 1.879-.891.585-1.908 1.257-2.855 2.11-.466.433-.973.867-1.434 1.368-.471.493-.9 1.049-1.35 1.618l-.673.768-.689.788c-.255.285-.544.574-.823.872l-.829.868c-.264.278-.51.537-.735.745l-.738.706zm-11.34 8.547c.211-.136.488-.432.78-.887.297-.449.634-1.014 1.007-1.626l.584-.948c.195-.334.399-.67.611-1.002.213-.332.436-.658.668-.973.117-.156.235-.31.357-.459.118-.152.235-.307.357-.452 2.004-2.282 4.518-4.935 6.61-7.066.032.466-.067 2.075-.874 3.985a12.573 12.573 0 0 1-4.707 5.77l-.825.598c-.247.18-.536.389-.846.612l-.478.346-.506.337c-.682.448-1.361.896-1.871 1.233-.253.173-.479.293-.629.388-.15.092-.238.144-.238.144z"/><path d="M102.047 78.512c.211-.136.629-.206 1.151-.313.527-.1 1.186-.195 1.919-.316.365-.063.754-.125 1.144-.211a23 23 0 0 0 1.183-.307c.398-.115.801-.243 1.195-.387.198-.072.394-.148.587-.229.19-.084.374-.179.556-.273 2.957-1.472 6.168-4.07 8.4-6.536-.512.001-2.143.332-4.177 1.057-2.011.766-4.418 1.885-6.575 3.816 0 0-.329.24-.822.604l-.844.619-.477.35-.505.34-1.868 1.249c-.251.175-.477.298-.627.394-.152.089-.24.143-.24.143zm-12.851 6.042c.234-.087.557-.348.944-.712.193-.183.403-.392.627-.618l.692-.763a37.676 37.676 0 0 1 1.572-1.654c.555-.556 1.121-1.127 1.726-1.583.301-.23.613-.461.936-.689l.122-.084.062-.043.007-.006c.013-.008-.109.059-.057.029l.002-.001.004-.003.016-.012.031-.023.252-.189.515-.378c.347-.251.702-.5 1.063-.746.359-.245.738-.488 1.054-.728a43.68 43.68 0 0 1 1.998-1.363c.661-.47 1.317-.91 1.95-1.311-.031.235-.164.729-.431 1.385-.134.329-.301.699-.506 1.098-.204.402-.457.795-.748 1.225-.292.426-.629.867-1.01 1.31-.098.109-.196.221-.295.333l-.325.319c-.223.211-.455.421-.698.627-.487.408-1.013.816-1.589 1.169-.588.341-1.219.652-1.892.92l-.919.441c-.555.255-1.313.557-2.063.876-.376.157-.752.314-1.104.463-.356.139-.692.255-.979.361l-.957.35z"/><path d="M89.25 84.706c.236-.088.648-.098 1.189-.074.271.011.574.031.902.054l1.043.032a31.11 31.11 0 0 0 2.389-.021 13.18 13.18 0 0 0 2.463-.417c.398-.108.805-.228 1.22-.356l.156-.049.078-.025.01-.003.062-.032h.002l.004-.002.02-.007.036-.013.296-.109c.197-.076.396-.151.596-.229.399-.154.801-.318 1.203-.488.402-.17.799-.334 1.225-.56a58.479 58.479 0 0 0 2.471-1.331 53.327 53.327 0 0 0 2.18-1.432c-.247-.05-.795-.091-1.541-.075-.373.008-.797.029-1.257.072-.457.047-.981.086-1.515.164-.537.074-1.099.175-1.675.308l-.435.107-.444.101a16.3 16.3 0 0 0-.905.246c-.612.183-1.225.421-1.854.688-.635.251-1.269.554-1.897.917l-.918.447c-.555.26-1.313.566-2.062.892l-1.104.471c-.356.142-.692.261-.979.369l-.959.355zm-13.743 3.651c.983-.219 3.687-3.01 6.435-4.382 2.776-1.354 6.165-2.771 8.941-3.87-.076.227-.303.689-.693 1.289-.397.582-.972 1.277-1.718 2.009a13.105 13.105 0 0 1-6.616 3.449l-.988.247c-.594.145-1.383.355-2.18.532l-2.186.504-.995.222z"/><path d="M75.543 88.514c.977-.218 4.619 1.138 7.875.896 3.24-.214 7.206-1.283 10.246-2.633-.23-.096-.756-.241-1.486-.366a20.056 20.056 0 0 0-2.755-.351c-2.147-.119-4.8-.044-7.536.908l-.988.254c-.594.148-1.382.364-2.178.546l-2.184.519-.994.227zM138.043 0s-.552 1.357-1.107 3.152a32.74 32.74 0 0 0-.83 2.914c-.246 1.009-.438 2.02-.484 2.934a23.83 23.83 0 0 0 .051 3.102 84.77 84.77 0 0 0 .301 3.524c.094 1.191.221 2.379.294 3.474.063 1.093.117 2.098.102 2.922.239-.788.564-1.737.944-2.779.37-1.043.751-2.184 1.139-3.346.354-1.165.705-2.352.967-3.485.248-1.134.445-2.212.498-3.153.049-.942-.025-1.999-.182-3.049a32.179 32.179 0 0 0-.649-3.015C138.568 1.353 138.043 0 138.043 0z"/><path d="M85.59 96.911c-.369-.297-.864-.637-1.529-1.088-.332-.221-.701-.469-1.121-.727-.436-.24-.913-.499-1.438-.773-1.037-.576-2.312-1.096-3.772-1.691-.743-.264-1.538-.537-2.385-.815-.851-.271-1.765-.513-2.727-.775-4.131-1.075-8.952-2.024-14.104-3.396-5.144-1.396-10.593-3.305-15.823-6.113a837.07 837.07 0 0 0-1.928-1.061c-.323-.171-.643-.369-.963-.564l-.961-.584-.963-.586c-.321-.196-.625-.414-.939-.619-.622-.42-1.251-.832-1.869-1.26a74.048 74.048 0 0 1-7.027-5.688 72.623 72.623 0 0 1-6.154-6.51c-1.892-2.273-3.58-4.653-5.131-7.037-1.538-2.396-2.873-4.832-4.088-7.22l-.854-1.798c-.141-.297-.279-.593-.419-.887l-.385-.892-.756-1.754-.682-1.738c-1.784-4.584-2.999-8.848-3.861-12.457a122.404 122.404 0 0 1-1.694-8.619c-.164-1.023-.264-1.822-.345-2.362l-.117-.824.845-.114.435 2.869c.168.92.351 2.052.606 3.36l.428 2.094c.148.742.347 1.519.532 2.339a98.922 98.922 0 0 0 3.414 11.357c.367 1.059.823 2.115 1.253 3.209.21.549.468 1.085.707 1.636.245.547.479 1.107.742 1.66l.809 1.668c.138.279.268.564.414.843l.443.836c.299.559.592 1.126.902 1.689l.975 1.682c.317.57.672 1.122 1.025 1.68.358.555.697 1.127 1.076 1.677l1.143 1.659.287.417.305.406.611.814c.797 1.106 1.693 2.146 2.561 3.221l1.379 1.553c.234.256.455.525.7.773l.727.75.729.752.365.376.381.362 1.526 1.444c.513.479 1.057.925 1.583 1.389l.797.69.826.656c2.172 1.785 4.51 3.364 6.862 4.847l1.782 1.064c.291.18.599.348.908.512l.922.497c.307.165.613.331.92.495l.229.125.114.061.028.016.015.008.058.027.464.223 1.845.884c.308.142.607.302.92.43l.934.39 1.852.775c.627.228 1.248.457 1.867.682.619.225 1.231.458 1.856.644 4.951 1.62 9.795 2.653 14.205 3.627 4.916 1.08 9.104 1.979 12.734 3.038l.678.185.658.21c.436.139.865.273 1.286.406.422.139.841.248 1.248.402l1.21.441c1.641.561 2.986 1.166 4.328 1.703 1.094.448-3.304 3.312-4.414 2.399z"/><path d="M6.855 33.078c-.12-.488.108-1.65.398-3.066.149-.71.305-1.482.418-2.267.112-.785.219-1.591.216-2.362.011-3.091-.304-6.83-.698-9.876-.309.361-1.168 1.729-1.749 3.744a16.368 16.368 0 0 0-.499 2.513 15.382 15.382 0 0 0 .001 2.903c.075.676.214 1.366.405 2.065l.203.999.503 2.185c.175.797.392 1.583.544 2.175l.258.987zm-.156.042c-.12-.488-.918-1.377-1.818-2.543a31.178 31.178 0 0 1-1.374-1.926 13.43 13.43 0 0 1-1.145-2.185C1.146 23.458.29 19.534.004 16.302c.404.302 1.528 1.516 2.64 3.338a17.862 17.862 0 0 1 1.202 2.299 15.434 15.434 0 0 1 .973 2.752c.174.658.323 1.346.411 2.066l.197 1.001.49 2.191c.169.799.382 1.588.531 2.182.149.593.251.989.251.989zm4.846 13.361c-.101-.23-.136-.642-.141-1.175 0-.267-.001-.561.015-.883l.059-1.029c.045-.723.069-1.5.081-2.293.016-.796-.009-1.599-.119-2.357-.409-3.048-1.188-6.69-1.939-9.647-.134.198-.388.664-.627 1.332-.24.669-.489 1.549-.661 2.586a15.027 15.027 0 0 0-.114 3.483c.068.629.178 1.28.339 1.941.082.33.17.665.284.997.118.331.25.663.396.994l.348.958c.199.579.507 1.333.81 2.091.301.757.603 1.515.859 2.07l.41.932zm-.148.066c-.101-.23-.379-.536-.77-.91l-.659-.613-.753-.721c-.526-.513-1.113-1.083-1.648-1.71a15.128 15.128 0 0 1-1.45-2.012 31.92 31.92 0 0 1-2.185-4.78c-.156-.426-.313-.854-.455-1.283-.135-.43-.264-.86-.386-1.286-.244-.851-.472-1.684-.628-2.485.217.127.627.463 1.171.972a18.06 18.06 0 0 1 1.854 2.033c.669.836 1.37 1.818 1.965 2.944a15.487 15.487 0 0 1 1.225 2.755c.12.33.229.67.327 1.02l.342.962c.195.58.499 1.338.798 2.098.297.761.594 1.522.847 2.08l.405.936zm7.027 12.346c-.279-.417-.46-1.582-.621-3.021a59.31 59.31 0 0 0-.147-1.108l-.088-.572-.083-.587c-.121-.784-.283-1.564-.522-2.286-.214-.737-.467-1.5-.749-2.271-.282-.771-.546-1.575-.855-2.355-.316-.777-.586-1.578-.899-2.334-.309-.759-.609-1.499-.895-2.199-.106.215-.276.704-.428 1.404-.15.699-.248 1.596-.26 2.644-.002.262.002.532.014.811a15.624 15.624 0 0 0 .419 2.642c.151.619.386 1.232.651 1.859.27.625.587 1.254 1.002 1.85l.51.882.522.904.638 1.013c.44.686.857 1.388 1.215 1.884l.576.84z"/><path d="M18.291 58.985c-.279-.417-1.339-.984-2.553-1.815a38.913 38.913 0 0 1-.957-.656l-.492-.358c-.16-.126-.318-.255-.477-.388a15.156 15.156 0 0 1-1.787-1.741 39.03 39.03 0 0 1-1.528-2.072c-.507-.734-.958-1.527-1.418-2.319-.468-.791-.849-1.621-1.235-2.426-.187-.406-.38-.803-.539-1.203-.161-.4-.314-.794-.458-1.179.231.096.701.366 1.302.796.604.43 1.372 1.005 2.151 1.735.196.182.393.374.591.575.204.198.411.404.616.62.41.432.814.9 1.2 1.408.385.509.789 1.037 1.144 1.618.359.578.686 1.201 1.008 1.85a657.062 657.062 0 0 0 1.024 1.796l.633 1.019c.436.691.85 1.396 1.205 1.896l.57.844zm9.308 10.725c-.182-.173-.373-.539-.581-1.027-.212-.486-.407-1.126-.644-1.802-.485-1.345-.976-2.968-1.722-4.284-1.462-2.668-3.39-5.783-5.015-8.308-.132.456-.344 2.047.046 4.089.168 1.038.538 2.148 1.07 3.305.258.585.613 1.136.994 1.699.392.555.815 1.12 1.344 1.619l.676.762.693.781c.257.283.547.57.828.865l.832.86c.265.276.512.532.738.738l.741.703z"/><path d="M27.487 69.827c-.182-.174-.557-.348-1.063-.543-.509-.193-1.116-.44-1.808-.713-1.391-.535-2.975-1.324-4.272-2.35a38.418 38.418 0 0 1-1.913-1.743c-.635-.632-1.237-1.325-1.843-2.022-1.175-1.417-2.256-2.921-3.09-4.351.493.107 2.032.748 3.865 1.879.891.585 1.907 1.257 2.855 2.11.466.433.974.867 1.434 1.368.47.493.9 1.049 1.35 1.618l.673.768.689.788c.255.285.543.574.823.872l.829.868c.264.278.51.537.734.745l.737.706zm11.34 8.547c-.212-.136-.488-.432-.78-.887-.297-.449-.635-1.014-1.008-1.626l-.584-.948a27.98 27.98 0 0 0-.611-1.002 18.368 18.368 0 0 0-.668-.973c-.115-.156-.234-.31-.357-.459-.118-.152-.235-.307-.358-.452-2.004-2.282-4.517-4.935-6.609-7.066-.033.466.066 2.075.874 3.985a12.577 12.577 0 0 0 4.706 5.77l.826.598c.247.18.536.389.846.612l.477.346.507.337 1.872 1.233c.252.173.477.293.627.388l.24.144z"/><path d="M38.742 78.512c-.211-.136-.629-.206-1.15-.313-.527-.1-1.185-.195-1.919-.316-.365-.063-.754-.125-1.144-.211-.387-.09-.783-.191-1.183-.307a18.28 18.28 0 0 1-1.196-.387 13.413 13.413 0 0 1-.586-.229 9.914 9.914 0 0 1-.557-.273c-2.956-1.472-6.168-4.07-8.399-6.536.512.001 2.142.332 4.177 1.057 2.01.766 4.418 1.885 6.574 3.816 0 0 .33.24.824.604a377.656 377.656 0 0 1 1.319.969c.167.112.336.227.506.34l1.867 1.249c.252.175.477.298.627.394.154.089.24.143.24.143zm12.853 6.042c-.235-.087-.558-.348-.944-.712a26.959 26.959 0 0 1-.627-.618l-.692-.763a37.714 37.714 0 0 0-1.573-1.654c-.555-.556-1.12-1.127-1.726-1.583-.302-.23-.614-.461-.937-.689l-.121-.084-.061-.043-.008-.006c-.014-.008.109.059.057.029l-.002-.001-.004-.003-.016-.012-.031-.023-.252-.189-.515-.378c-.347-.251-.702-.5-1.063-.746-.36-.245-.739-.488-1.055-.728a43.656 43.656 0 0 0-1.997-1.363c-.662-.47-1.318-.91-1.949-1.311.031.235.162.729.43 1.385a11.344 11.344 0 0 0 1.254 2.323c.292.426.629.867 1.01 1.31.098.109.195.221.295.333l.324.319c.223.211.455.421.699.627.486.408 1.012.816 1.588 1.169.588.341 1.219.652 1.893.92l.918.441c.557.255 1.313.557 2.063.876.376.157.752.314 1.104.463.355.139.693.255.979.361l.959.35z"/><path d="M51.539 84.706c-.235-.088-.648-.098-1.189-.074a31.9 31.9 0 0 0-.902.054l-1.042.032c-.737.018-1.553.023-2.389-.021a13.18 13.18 0 0 1-2.463-.417 38.068 38.068 0 0 1-1.221-.356l-.155-.049-.078-.026-.01-.003-.062-.032h-.002l-.005-.002-.018-.007-.037-.013-.297-.109-.596-.229a42.168 42.168 0 0 1-1.203-.488c-.402-.17-.798-.334-1.225-.56a59.74 59.74 0 0 1-2.471-1.331 54.025 54.025 0 0 1-2.18-1.432c.248-.05.795-.091 1.542-.075.373.008.796.029 1.257.072.457.047.981.086 1.514.164.537.074 1.1.175 1.676.308l.435.107.444.101c.299.072.601.154.905.246.612.183 1.224.421 1.855.688.635.251 1.268.554 1.897.917l.917.447c.556.26 1.313.566 2.063.892l1.103.471c.356.142.692.261.979.369l.958.356zm13.744 3.651c-.984-.219-3.686-3.01-6.435-4.382-2.776-1.354-6.165-2.771-8.942-3.87.078.227.304.689.693 1.289.398.582.973 1.277 1.719 2.009a13.101 13.101 0 0 0 6.615 3.449l.989.247c.594.145 1.382.355 2.179.532l2.186.504.996.222z"/><path d="M65.248 88.514c-.978-.218-4.621 1.138-7.876.896-3.241-.214-7.206-1.283-10.247-2.633.231-.096.757-.241 1.486-.366a20.052 20.052 0 0 1 2.756-.351c2.146-.119 4.799-.044 7.536.908l.987.254c.595.148 1.383.364 2.178.546l2.184.519.996.227zM2.747 0s.551 1.357 1.107 3.152c.297.898.597 1.905.83 2.914.245 1.009.439 2.02.485 2.934.052.913.036 1.971-.051 3.102a86.522 86.522 0 0 1-.301 3.524c-.094 1.191-.221 2.379-.293 3.474-.063 1.093-.118 2.098-.102 2.922a56.16 56.16 0 0 0-.944-2.779c-.37-1.043-.751-2.184-1.138-3.346-.354-1.165-.707-2.352-.968-3.485C1.124 11.278.927 10.2.874 9.259c-.048-.941.026-1.998.182-3.048.169-1.05.406-2.094.647-3.015C2.222 1.353 2.747 0 2.747 0z"/><g><circle cx="70.395" cy="88.728" r="2.527"/></g><g><path d="M77.588 82.654c-1.629-3.176-7.029 3.857-7.018 5.961.012 2.104 5.484 8.906 7.079 5.663 1.595-3.243 1.568-8.449-.061-11.624z"/></g><g><path d="M62.969 82.654c1.63-3.176 7.029 3.857 7.018 5.961-.011 2.104-5.483 8.906-7.078 5.663-1.596-3.243-1.569-8.449.06-11.624z"/></g></symbol></svg>